<svg width="58" height="61" viewBox="0 0 58 61" fill="none" xmlns="http://www.w3.org/2000/svg">
<path d="M25.6308 11.0112V49.9888H16.4109C14.8586 49.9888 13.5977 48.9696 13.5977 47.7106V13.2895C13.5977 12.0325 14.8563 11.0112 16.4109 11.0112H25.6308Z" fill="url(#paint0_linear_287_720)"/>
<path opacity="0.1" d="M13.5977 60.9999V49.9888" stroke="#CCCCCC" stroke-miterlimit="10"/>
<path opacity="0.1" d="M13.5977 11.0111V0" stroke="#CCCCCC" stroke-miterlimit="10"/>
<path opacity="0.1" d="M25.6309 60.9999V49.9888" stroke="#CCCCCC" stroke-miterlimit="10"/>
<path opacity="0.1" d="M49.697 60.9999V49.9888" stroke="#CCCCCC" stroke-miterlimit="10"/>
<path opacity="0.1" d="M49.697 11.0111V0" stroke="#CCCCCC" stroke-miterlimit="10"/>
<path opacity="0.1" d="M45.8464 11.0112H51.5526H57.9999" stroke="#CCCCCC" stroke-miterlimit="10"/>
<path opacity="0.1" d="M13.5976 49.9888H0" stroke="#CCCCCC" stroke-miterlimit="10"/>
<path d="M49.6972 20.7556V30.5C49.6972 35.8808 44.3087 40.2445 37.664 40.2445H25.6309V30.5H34.042C36.042 30.5 37.664 29.1865 37.664 27.567V20.7556H49.6972Z" fill="url(#paint1_linear_287_720)"/>
<path d="M49.6972 20.7557H25.6309V11.0112H37.664C44.3087 11.0112 49.6972 15.3748 49.6972 20.7557Z" fill="url(#paint2_linear_287_720)"/>
<path opacity="0.1" d="M13.5976 11.0112H0" stroke="#CCCCCC" stroke-miterlimit="10"/>
<defs>
<linearGradient id="paint0_linear_287_720" x1="25.7969" y1="9.59052" x2="20.8526" y2="51.9497" gradientUnits="userSpaceOnUse">
<stop stop-color="#ccc"/>
<stop offset="0.807292" stop-color="white"/>
</linearGradient>
<linearGradient id="paint1_linear_287_720" x1="27.4551" y1="30.9346" x2="51.0622" y2="29.4241" gradientUnits="userSpaceOnUse">
<stop stop-color="#ccc"/>
<stop offset="0.828125" stop-color="white"/>
</linearGradient>
<linearGradient id="paint2_linear_287_720" x1="49.5" y1="18.5" x2="29.7832" y2="8.47593" gradientUnits="userSpaceOnUse">
<stop stop-color="#ccc"/>
<stop offset="1" stop-color="white"/>
</linearGradient>
</defs>
</svg>
