<svg width="495" height="291" viewBox="0 0 495 291" fill="none" xmlns="http://www.w3.org/2000/svg">
<g clip-path="url(#clip0_167_576)">
<rect width="494.401" height="291" transform="translate(0.598877)" fill="white"/>
<path d="M1.5481 31.1465V30.0215C3.90356 30.0918 5.76685 30.127 7.13794 30.127C8.052 30.127 9.02466 30.1152 10.0559 30.0918L12.8157 30.0039C13.1204 29.9922 13.4016 29.9863 13.6594 29.9863C15.5227 29.9863 16.9875 30.1914 18.054 30.6016C19.1204 31.0117 19.9524 31.668 20.55 32.5703C21.1477 33.4609 21.4465 34.4805 21.4465 35.6289C21.4465 36.6602 21.1946 37.6855 20.6907 38.7051C20.1985 39.7246 19.4778 40.5918 18.5286 41.3066C17.5793 42.0098 16.5891 42.5137 15.5579 42.8184C14.8547 43.0293 14.0579 43.1348 13.1672 43.1348C12.4172 43.1348 11.6086 43.0527 10.7415 42.8887L10.3723 41.5879C11.4153 41.8223 12.2356 41.9395 12.8333 41.9395C13.7122 41.9395 14.5442 41.7285 15.3293 41.3066C16.1262 40.873 16.7415 40.2285 17.175 39.373C17.6204 38.5059 17.843 37.5508 17.843 36.5078C17.843 35.5 17.6262 34.5918 17.1926 33.7832C16.7708 32.9629 16.1204 32.3418 15.2415 31.9199C14.3743 31.498 13.3196 31.2871 12.0774 31.2871C10.9641 31.2871 9.7688 31.4863 8.49146 31.8848C8.38599 33.127 8.33325 35.0723 8.33325 37.7207V46.5801C8.33325 48.1738 8.35083 49.7266 8.38599 51.2383C8.42114 52.3516 8.50317 53.0137 8.63208 53.2246C8.77271 53.4355 8.9895 53.5938 9.28247 53.6992C9.58716 53.793 10.4368 53.8516 11.8313 53.875V55C9.66333 54.9062 8.06958 54.8594 7.05005 54.8594C6.65161 54.8594 4.81763 54.9062 1.5481 55V53.875C2.93091 53.8516 3.77466 53.793 4.07935 53.6992C4.38403 53.5938 4.59497 53.4531 4.71216 53.2773C4.85278 53.043 4.94067 52.4746 4.97583 51.5723C4.98755 51.3262 5.01099 49.6621 5.04614 46.5801V38.4414C5.04614 36.8477 5.02856 35.2891 4.99341 33.7656C4.95825 32.6523 4.87036 31.9961 4.72974 31.7969C4.60083 31.5859 4.38403 31.4336 4.07935 31.3398C3.78638 31.2344 2.94263 31.1699 1.5481 31.1465ZM26.175 42.959L25.2434 42.7129C25.2551 42.4434 25.261 42.0742 25.261 41.6055C25.261 41.1133 25.2551 40.7207 25.2434 40.4277C26.7317 39.4551 27.9504 38.7988 28.8997 38.459C29.6262 38.2129 30.4407 38.0898 31.343 38.0898C32.679 38.0898 33.804 38.3418 34.718 38.8457C35.6321 39.3496 36.3118 40.0703 36.7571 41.0078C37.0618 41.6641 37.2141 42.5605 37.2141 43.6973L37.1438 46.9141V52.1523C37.1438 52.7148 37.1907 53.1191 37.2844 53.3652C37.3547 53.541 37.4661 53.6699 37.6184 53.752C37.7356 53.8223 37.9817 53.8691 38.3567 53.8926L39.4993 53.998V55C38.5383 54.918 37.6946 54.877 36.968 54.877C36.2649 54.877 35.3274 54.918 34.1555 55L34.2434 51.9062C31.8528 53.7109 30.4348 54.7305 29.9895 54.9648C29.5442 55.1875 28.9817 55.2988 28.302 55.2988C26.884 55.2988 25.7766 54.9238 24.9797 54.1738C24.1946 53.4121 23.802 52.4043 23.802 51.1504C23.802 50.3418 23.9368 49.6035 24.2063 48.9355C24.4875 48.2676 24.8215 47.7402 25.2083 47.3535C25.595 46.9551 25.9875 46.6621 26.386 46.4746C27.0657 46.1582 28.1672 45.8184 29.6907 45.4551C31.2258 45.0918 32.7434 44.8223 34.2434 44.6465C34.2551 43.5332 34.1204 42.666 33.8391 42.0449C33.5579 41.4238 33.0833 40.9141 32.4153 40.5156C31.7473 40.1172 30.9329 39.918 29.9719 39.918C29.2805 39.918 28.6711 40.0117 28.1438 40.1992C27.6282 40.3867 27.3118 40.5449 27.1946 40.6738L26.8782 41.3066C26.5618 42.0098 26.3274 42.5605 26.175 42.959ZM34.2434 45.7188C32.72 45.9766 31.4192 46.2637 30.3411 46.5801C29.2629 46.8965 28.5012 47.2246 28.0559 47.5645C27.7864 47.7637 27.552 48.0625 27.3528 48.4609C27.0481 49.0469 26.8958 49.6973 26.8958 50.4121C26.8958 51.2793 27.136 51.959 27.6165 52.4512C28.0969 52.9316 28.7649 53.1719 29.6204 53.1719C30.4055 53.1719 31.179 52.9492 31.9407 52.5039C32.7141 52.0469 33.4817 51.3672 34.2434 50.4648V45.7188ZM41.2571 55V53.998L42.9094 53.9805C43.1672 53.9688 43.3606 53.9277 43.4895 53.8574C43.6301 53.7754 43.7356 53.6758 43.8059 53.5586C43.9348 53.3242 44.011 52.9082 44.0344 52.3105C44.0461 52.1582 44.0872 50.4766 44.1575 47.2656V39.9707C44.1575 38.0137 44.1223 35.9922 44.052 33.9062C44.0051 32.5 43.9407 31.7148 43.8586 31.5508C43.8 31.4336 43.7063 31.3516 43.5774 31.3047C43.4016 31.2227 42.593 31.1816 41.1516 31.1816V30.1445C43.8 29.8164 45.6399 29.4062 46.6711 28.9141C46.8235 28.8438 46.9407 28.8086 47.0227 28.8086C47.1047 28.8086 47.1692 28.8379 47.2161 28.8965C47.2629 28.9434 47.2864 29.0137 47.2864 29.1074C47.2864 29.1895 47.2747 29.3066 47.2512 29.459L47.2336 30.0391C47.175 32.1367 47.1399 33.9238 47.1282 35.4004L47.093 38.1426V47.2656C47.1516 50.3125 47.1868 51.959 47.1985 52.2051C47.2102 52.791 47.2805 53.2188 47.4094 53.4883C47.4563 53.5938 47.5266 53.6875 47.6204 53.7695C47.7141 53.8398 47.8547 53.8984 48.0422 53.9453C48.1243 53.957 48.7747 53.9746 49.9934 53.998V55C48.3997 54.9062 46.9993 54.8594 45.7922 54.8594C44.6438 54.8594 43.1321 54.9062 41.2571 55ZM54.6516 42.959L53.72 42.7129C53.7317 42.4434 53.7375 42.0742 53.7375 41.6055C53.7375 41.1133 53.7317 40.7207 53.72 40.4277C55.2083 39.4551 56.427 38.7988 57.3762 38.459C58.1028 38.2129 58.9172 38.0898 59.8196 38.0898C61.1555 38.0898 62.2805 38.3418 63.1946 38.8457C64.1086 39.3496 64.7883 40.0703 65.2336 41.0078C65.5383 41.6641 65.6907 42.5605 65.6907 43.6973L65.6204 46.9141V52.1523C65.6204 52.7148 65.6672 53.1191 65.761 53.3652C65.8313 53.541 65.9426 53.6699 66.095 53.752C66.2122 53.8223 66.4583 53.8691 66.8333 53.8926L67.9758 53.998V55C67.0149 54.918 66.1711 54.877 65.4446 54.877C64.7415 54.877 63.804 54.918 62.6321 55L62.72 51.9062C60.3293 53.7109 58.9114 54.7305 58.4661 54.9648C58.0208 55.1875 57.4583 55.2988 56.7786 55.2988C55.3606 55.2988 54.2532 54.9238 53.4563 54.1738C52.6711 53.4121 52.2786 52.4043 52.2786 51.1504C52.2786 50.3418 52.4133 49.6035 52.6829 48.9355C52.9641 48.2676 53.2981 47.7402 53.6848 47.3535C54.0715 46.9551 54.4641 46.6621 54.8625 46.4746C55.5422 46.1582 56.6438 45.8184 58.1672 45.4551C59.7024 45.0918 61.22 44.8223 62.72 44.6465C62.7317 43.5332 62.5969 42.666 62.3157 42.0449C62.0344 41.4238 61.5598 40.9141 60.8918 40.5156C60.2239 40.1172 59.4094 39.918 58.4485 39.918C57.7571 39.918 57.1477 40.0117 56.6204 40.1992C56.1047 40.3867 55.7883 40.5449 55.6711 40.6738L55.3547 41.3066C55.0383 42.0098 54.804 42.5605 54.6516 42.959ZM62.72 45.7188C61.1965 45.9766 59.8958 46.2637 58.8176 46.5801C57.7395 46.8965 56.9778 47.2246 56.5325 47.5645C56.2629 47.7637 56.0286 48.0625 55.8293 48.4609C55.5247 49.0469 55.3723 49.6973 55.3723 50.4121C55.3723 51.2793 55.6125 51.959 56.093 52.4512C56.5735 52.9316 57.2415 53.1719 58.0969 53.1719C58.8821 53.1719 59.6555 52.9492 60.4172 52.5039C61.1907 52.0469 61.9583 51.3672 62.72 50.4648V45.7188ZM69.6458 41.2188V40.4805C70.8176 40.0352 71.7493 39.6367 72.4407 39.2852C72.4407 36.4961 72.4055 34.7148 72.3352 33.9414C73.554 33.5195 74.5442 33.0684 75.3059 32.5879L75.7278 32.9395C75.5989 33.9121 75.4583 36.0566 75.3059 39.373C76.2434 39.3848 76.8059 39.3906 76.9934 39.3906C77.0989 39.3906 77.7024 39.3789 78.804 39.3555C79.4133 39.3438 79.8704 39.3203 80.175 39.2852L80.2981 39.4082L79.929 41.043C79.1907 41.0312 78.511 41.0254 77.8899 41.0254C77.2688 41.0254 76.4075 41.0312 75.3059 41.043L75.2004 48.1973C75.1653 49.9434 75.177 50.9863 75.2356 51.3262C75.2942 51.666 75.4055 51.9648 75.5696 52.2227C75.7336 52.4688 75.9446 52.668 76.2024 52.8203C76.4719 52.9727 76.9231 53.0898 77.5559 53.1719C78.0364 53.1719 78.4231 53.1543 78.7161 53.1191C79.0208 53.0723 79.4016 52.9668 79.8586 52.8027L80.0696 53.4883C79.5188 53.9219 78.9856 54.373 78.47 54.8418C78.0247 55.0059 77.6086 55.1113 77.2219 55.1582C76.8352 55.2168 76.3899 55.2461 75.886 55.2461C75.2649 55.2461 74.7668 55.1758 74.3918 55.0352C74.0286 54.8945 73.6946 54.7012 73.3899 54.4551C73.0852 54.1973 72.8333 53.875 72.634 53.4883C72.4348 53.1016 72.3059 52.4922 72.2473 51.6602C72.259 50.8633 72.2825 49.9902 72.3176 49.041C72.3293 48.8535 72.3352 48.6484 72.3352 48.4258V41.1309H71.6145C71.0286 41.1309 70.3723 41.1602 69.6458 41.2188ZM85.6594 30.25C86.2102 30.25 86.6731 30.4434 87.0481 30.8301C87.4348 31.2168 87.6282 31.6855 87.6282 32.2363C87.6282 32.7754 87.4348 33.2383 87.0481 33.625C86.6614 34.0117 86.1985 34.2051 85.6594 34.2051C85.1086 34.2051 84.6399 34.0117 84.2532 33.625C83.8665 33.2383 83.6731 32.7754 83.6731 32.2363C83.6731 31.6855 83.8665 31.2168 84.2532 30.8301C84.6399 30.4434 85.1086 30.25 85.6594 30.25ZM81.3704 40.5332V39.5312C83.6438 39.2734 85.554 38.7812 87.1008 38.0547L87.4875 38.3359C87.3938 40.832 87.3469 42.7422 87.3469 44.0664V47.2656C87.4055 50.3125 87.4407 51.959 87.4524 52.2051C87.4641 52.791 87.5286 53.2188 87.6458 53.4883C87.7043 53.5938 87.7805 53.6875 87.8743 53.7695C87.968 53.8398 88.1086 53.8984 88.2961 53.9453C88.3665 53.957 89.0168 53.9746 90.2473 53.998V55C88.4661 54.918 87.0422 54.877 85.9758 54.877C85.0383 54.877 83.5032 54.918 81.3704 55V53.998L83.0403 53.9805C83.2864 53.9688 83.4739 53.9277 83.6028 53.8574C83.7434 53.7754 83.8489 53.6758 83.9192 53.5586C84.0481 53.3242 84.1301 52.9082 84.1653 52.3105C84.1653 52.1582 84.2004 50.4766 84.2708 47.2656V44.1719C84.2708 42.4258 84.2122 41.3887 84.095 41.0605C84.0247 40.8848 83.8958 40.7559 83.7083 40.6738C83.5325 40.5801 82.7532 40.5332 81.3704 40.5332ZM91.5481 55V53.998L93.218 53.9805C93.4641 53.9688 93.6516 53.9277 93.7805 53.8574C93.9211 53.7754 94.0266 53.6758 94.0969 53.5586C94.2258 53.3242 94.3079 52.9082 94.343 52.3105C94.343 52.1582 94.3782 50.4766 94.4485 47.2656V45.1738C94.4485 44.2363 94.4309 43.2285 94.3958 42.1504C94.3606 41.459 94.302 41.0488 94.22 40.9199C94.1497 40.791 94.0208 40.6973 93.8333 40.6387C93.6458 40.5684 92.884 40.5391 91.5481 40.5508V39.5488C93.9153 39.2207 95.6438 38.793 96.7336 38.2656C96.968 38.1484 97.1262 38.0898 97.2083 38.0898C97.2903 38.0898 97.3547 38.1191 97.4016 38.1777C97.4485 38.2363 97.4719 38.3242 97.4719 38.4414C97.4719 38.5234 97.4661 38.6172 97.4543 38.7227C97.4192 39.1445 97.384 40.0352 97.3489 41.3945L100.618 38.5996C101.579 38.248 102.488 38.0723 103.343 38.0723C104.292 38.0723 105.189 38.2656 106.032 38.6523C106.888 39.0391 107.527 39.5254 107.948 40.1113C108.382 40.6973 108.669 41.4355 108.81 42.3262C108.892 42.8535 108.933 44.3242 108.933 46.7383V49.8496C108.933 51.373 108.974 52.4102 109.056 52.9609C109.115 53.3125 109.202 53.5586 109.32 53.6992C109.448 53.8281 109.642 53.9102 109.9 53.9453L111.781 53.998V55C110.632 54.918 109.677 54.877 108.915 54.877C108.259 54.877 107.169 54.918 105.646 55C105.81 52.1055 105.892 50.2773 105.892 49.5156V46.5625C105.892 44.7227 105.822 43.5156 105.681 42.9414C105.482 42.1562 105.031 41.5234 104.327 41.043C103.624 40.5625 102.775 40.3223 101.779 40.3223C100.9 40.3223 100.097 40.5332 99.3704 40.9551C98.6438 41.3652 98.1223 41.8457 97.8059 42.3965C97.5012 42.9355 97.3489 43.8496 97.3489 45.1387V47.2656C97.4192 50.3125 97.4543 51.959 97.4543 52.2051C97.4778 52.791 97.5481 53.2188 97.6653 53.4883C97.7122 53.5938 97.7825 53.6875 97.8762 53.7695C97.97 53.8398 98.1165 53.8984 98.3157 53.9453C98.386 53.957 99.0305 53.9746 100.249 53.998V55C98.8196 54.918 97.5247 54.877 96.3645 54.877C95.3801 54.877 93.7747 54.918 91.5481 55ZM113.204 46.9141C113.204 44.2891 114.036 42.1504 115.7 40.498C117.376 38.834 119.521 38.002 122.134 38.002C124.595 38.002 126.599 38.7754 128.146 40.3223C129.693 41.8691 130.466 43.8672 130.466 46.3164C130.466 48.0273 130.068 49.5918 129.271 51.0098C128.474 52.4277 127.349 53.541 125.896 54.3496C124.443 55.1465 122.843 55.5449 121.097 55.5449C119.738 55.5449 118.583 55.3164 117.634 54.8594C116.697 54.4023 115.935 53.8281 115.349 53.1367C114.763 52.4453 114.318 51.7363 114.013 51.0098C113.474 49.7324 113.204 48.3672 113.204 46.9141ZM116.527 45.6133C116.527 47.0547 116.767 48.5195 117.247 50.0078C117.728 51.4961 118.419 52.5859 119.322 53.2773C120.236 53.957 121.226 54.2969 122.292 54.2969C123.652 54.2969 124.788 53.7578 125.702 52.6797C126.616 51.6016 127.073 49.9434 127.073 47.7051C127.073 45.8418 126.798 44.2363 126.247 42.8887C125.708 41.5293 125.017 40.5742 124.173 40.0234C123.329 39.4609 122.398 39.1797 121.378 39.1797C119.937 39.1797 118.765 39.7012 117.863 40.7441C116.972 41.7871 116.527 43.4102 116.527 45.6133Z" fill="black"/>
<path d="M2.05493 136V134.195C3.35376 134.168 4.14673 134.127 4.43384 134.072C4.72095 134.018 4.93286 133.942 5.06958 133.847C5.2063 133.737 5.302 133.587 5.35669 133.396C5.49341 132.985 5.5686 132.035 5.58228 130.545L5.66431 126.464V116.866L5.58228 112.826C5.5686 111.309 5.49341 110.345 5.35669 109.935C5.302 109.743 5.2063 109.6 5.06958 109.504C4.94653 109.395 4.74146 109.312 4.45435 109.258C4.16724 109.189 3.36743 109.142 2.05493 109.114V107.31C4.29712 107.392 6.66235 107.433 9.15063 107.433C11.3792 107.433 13.3547 107.392 15.0774 107.31V109.114C13.6145 109.169 12.7532 109.23 12.4934 109.299C12.2336 109.354 12.0491 109.449 11.9397 109.586C11.8303 109.723 11.7483 110.201 11.6936 111.021C11.5706 112.416 11.509 114.426 11.509 117.051V119.409C12.4934 119.491 14.5579 119.532 17.7024 119.532C21.6672 119.532 24.1145 119.491 25.0442 119.409V117.051C25.0442 114.932 25.0305 113.571 25.0032 112.97C24.8938 111.151 24.8118 110.126 24.7571 109.894C24.7161 109.729 24.6477 109.606 24.552 109.524C24.47 109.429 24.3059 109.354 24.0598 109.299C23.8274 109.23 22.9729 109.169 21.4963 109.114V107.31C23.219 107.392 25.1946 107.433 27.4231 107.433C29.9114 107.433 32.2766 107.392 34.5188 107.31V109.114C33.22 109.142 32.427 109.183 32.1399 109.237C31.8528 109.292 31.6409 109.374 31.5042 109.483C31.3674 109.579 31.2717 109.723 31.217 109.914C31.0803 110.338 31.0051 111.288 30.9915 112.765L30.9094 116.866V126.464L30.9915 130.483C31.0051 132.015 31.0735 132.979 31.1965 133.375C31.2649 133.566 31.3606 133.717 31.4836 133.826C31.6204 133.936 31.8323 134.018 32.1194 134.072C32.4065 134.127 33.2063 134.168 34.5188 134.195V136C32.2766 135.918 29.9114 135.877 27.4231 135.877C25.1946 135.877 23.219 135.918 21.4963 136V134.195C22.9592 134.141 23.8206 134.086 24.0803 134.031C24.3401 133.963 24.5247 133.86 24.634 133.724C24.7434 133.587 24.8254 133.108 24.8801 132.288C24.9895 130.894 25.0442 128.884 25.0442 126.259V121.973C24.3606 121.877 22.3713 121.829 19.0764 121.829C15.9182 121.829 13.8127 121.843 12.76 121.87C12.3362 121.884 11.9192 121.918 11.509 121.973V126.259C11.509 128.392 11.5295 129.752 11.5706 130.34C11.6799 132.158 11.762 133.19 11.8167 133.437C11.8577 133.587 11.9192 133.71 12.0012 133.806C12.0969 133.888 12.261 133.963 12.4934 134.031C12.7395 134.086 13.6008 134.141 15.0774 134.195V136C13.3547 135.918 11.3792 135.877 9.15063 135.877C6.66235 135.877 4.29712 135.918 2.05493 136ZM39.1439 136V134.339L43.0199 133.929C43.43 133.874 43.7308 133.758 43.9222 133.58C44.1136 133.389 44.2572 133.013 44.3529 132.452C44.5306 131.386 44.6195 129.014 44.6195 125.336V120.414C44.6195 118.719 44.599 116.887 44.558 114.918L44.4965 113.154C44.4965 112.717 44.4554 112.437 44.3734 112.313C44.2914 112.19 44.1888 112.129 44.0658 112.129C43.9838 112.129 43.683 112.245 43.1634 112.478C40.4974 113.653 38.8021 114.433 38.0775 114.815L37.8314 114.672C37.7767 114.398 37.7084 113.961 37.6263 113.359C37.558 112.908 37.4828 112.491 37.4008 112.108L37.4213 111.965C39.8685 111.254 41.8099 110.659 43.2455 110.181C44.6947 109.702 46.9506 108.889 50.0131 107.74L50.4642 108.048C50.4642 108.267 50.4232 108.909 50.3412 109.976C50.2592 111.042 50.2181 111.726 50.2181 112.026C50.1771 113.216 50.1224 116.258 50.0541 121.152V124.188C50.0541 127.154 50.0677 129.212 50.0951 130.36C50.1361 132.11 50.225 133.136 50.3617 133.437C50.4437 133.614 50.5804 133.751 50.7718 133.847C51.1 134.024 52.0843 134.147 53.725 134.216C54.1898 134.229 54.6342 134.271 55.058 134.339V136C52.0912 135.863 49.6849 135.795 47.8392 135.795C46.5814 135.795 43.683 135.863 39.1439 136Z" fill="black"/>
<path d="M161.589 128.464V127.233L167.022 118.636H167.916V120.544H167.312L163.207 127.04V127.136H170.524V128.464H161.589ZM167.409 131V128.09V127.517V118.636H168.833V131H167.409ZM172.356 131V129.913L176.437 125.446C176.916 124.923 177.31 124.468 177.62 124.082C177.93 123.691 178.159 123.325 178.308 122.983C178.461 122.637 178.538 122.275 178.538 121.896C178.538 121.462 178.433 121.085 178.224 120.767C178.019 120.449 177.737 120.204 177.379 120.031C177.02 119.858 176.618 119.771 176.171 119.771C175.696 119.771 175.282 119.87 174.928 120.067C174.578 120.26 174.306 120.532 174.113 120.882C173.924 121.232 173.829 121.643 173.829 122.114H172.404C172.404 121.389 172.571 120.753 172.905 120.206C173.239 119.659 173.694 119.232 174.27 118.926C174.849 118.62 175.499 118.467 176.22 118.467C176.944 118.467 177.586 118.62 178.145 118.926C178.705 119.232 179.143 119.645 179.461 120.164C179.779 120.683 179.938 121.26 179.938 121.896C179.938 122.351 179.856 122.796 179.691 123.23C179.53 123.661 179.248 124.142 178.846 124.673C178.447 125.201 177.894 125.844 177.185 126.605L174.408 129.575V129.672H180.156V131H172.356ZM182.243 134.477V121.727H183.619V123.2H183.789C183.893 123.039 184.038 122.834 184.223 122.585C184.412 122.331 184.682 122.106 185.032 121.908C185.386 121.707 185.865 121.607 186.469 121.607C187.25 121.607 187.938 121.802 188.534 122.192C189.129 122.583 189.594 123.136 189.928 123.852C190.262 124.569 190.429 125.414 190.429 126.388C190.429 127.37 190.262 128.221 189.928 128.941C189.594 129.658 189.131 130.213 188.54 130.608C187.948 130.998 187.266 131.193 186.493 131.193C185.897 131.193 185.42 131.095 185.062 130.897C184.704 130.696 184.428 130.469 184.235 130.215C184.042 129.958 183.893 129.744 183.789 129.575H183.668V134.477H182.243ZM183.644 126.364C183.644 127.064 183.746 127.682 183.952 128.217C184.157 128.748 184.457 129.165 184.851 129.467C185.245 129.764 185.728 129.913 186.3 129.913C186.896 129.913 187.393 129.756 187.791 129.442C188.193 129.125 188.495 128.698 188.697 128.163C188.902 127.623 189.004 127.024 189.004 126.364C189.004 125.712 188.904 125.124 188.703 124.601C188.505 124.074 188.206 123.657 187.803 123.351C187.405 123.041 186.904 122.886 186.3 122.886C185.72 122.886 185.233 123.033 184.839 123.327C184.445 123.617 184.147 124.023 183.945 124.547C183.744 125.066 183.644 125.671 183.644 126.364ZM192.853 121.727L195.075 125.518L197.296 121.727H198.938L195.944 126.364L198.938 131H197.296L195.075 127.402L192.853 131H191.211L194.157 126.364L191.211 121.727H192.853ZM209.263 118.057L205.279 132.859H203.975L207.959 118.057H209.263ZM214.559 128.464V127.233L219.993 118.636H220.886V120.544H220.282L216.177 127.04V127.136H223.494V128.464H214.559ZM220.379 131V128.09V127.517V118.636H221.804V131H220.379ZM229.287 131.169C228.458 131.169 227.725 131.022 227.089 130.728C226.457 130.431 225.964 130.022 225.61 129.503C225.256 128.98 225.081 128.384 225.085 127.716C225.081 127.193 225.184 126.71 225.393 126.267C225.602 125.82 225.888 125.448 226.25 125.15C226.616 124.848 227.025 124.657 227.476 124.577V124.504C226.884 124.351 226.413 124.019 226.063 123.508C225.713 122.993 225.54 122.407 225.544 121.751C225.54 121.124 225.699 120.562 226.021 120.067C226.343 119.572 226.785 119.182 227.349 118.896C227.916 118.61 228.562 118.467 229.287 118.467C230.003 118.467 230.643 118.61 231.206 118.896C231.77 119.182 232.213 119.572 232.534 120.067C232.86 120.562 233.026 121.124 233.03 121.751C233.026 122.407 232.846 122.993 232.492 123.508C232.142 124.019 231.677 124.351 231.098 124.504V124.577C231.544 124.657 231.947 124.848 232.305 125.15C232.663 125.448 232.949 125.82 233.162 126.267C233.376 126.71 233.484 127.193 233.488 127.716C233.484 128.384 233.303 128.98 232.945 129.503C232.591 130.022 232.098 130.431 231.466 130.728C230.838 131.022 230.112 131.169 229.287 131.169ZM229.287 129.841C229.846 129.841 230.329 129.75 230.735 129.569C231.142 129.388 231.456 129.133 231.677 128.803C231.899 128.473 232.011 128.086 232.015 127.643C232.011 127.177 231.891 126.764 231.653 126.406C231.416 126.048 231.092 125.766 230.681 125.561C230.275 125.355 229.81 125.253 229.287 125.253C228.759 125.253 228.289 125.355 227.874 125.561C227.463 125.766 227.139 126.048 226.902 126.406C226.669 126.764 226.554 127.177 226.558 127.643C226.554 128.086 226.661 128.473 226.878 128.803C227.099 129.133 227.415 129.388 227.826 129.569C228.236 129.75 228.723 129.841 229.287 129.841ZM229.287 123.973C229.729 123.973 230.122 123.884 230.464 123.707C230.81 123.53 231.082 123.283 231.279 122.965C231.476 122.647 231.577 122.275 231.581 121.848C231.577 121.429 231.478 121.065 231.285 120.755C231.092 120.441 230.824 120.2 230.482 120.031C230.14 119.858 229.741 119.771 229.287 119.771C228.824 119.771 228.419 119.858 228.073 120.031C227.727 120.2 227.459 120.441 227.27 120.755C227.081 121.065 226.989 121.429 226.993 121.848C226.989 122.275 227.083 122.647 227.276 122.965C227.474 123.283 227.745 123.53 228.091 123.707C228.437 123.884 228.836 123.973 229.287 123.973ZM235.396 134.477V121.727H236.773V123.2H236.942C237.046 123.039 237.191 122.834 237.376 122.585C237.565 122.331 237.835 122.106 238.185 121.908C238.539 121.707 239.018 121.607 239.622 121.607C240.403 121.607 241.091 121.802 241.687 122.192C242.282 122.583 242.747 123.136 243.081 123.852C243.415 124.569 243.582 125.414 243.582 126.388C243.582 127.37 243.415 128.221 243.081 128.941C242.747 129.658 242.284 130.213 241.693 130.608C241.101 130.998 240.419 131.193 239.646 131.193C239.05 131.193 238.574 131.095 238.215 130.897C237.857 130.696 237.582 130.469 237.388 130.215C237.195 129.958 237.046 129.744 236.942 129.575H236.821V134.477H235.396ZM236.797 126.364C236.797 127.064 236.899 127.682 237.105 128.217C237.31 128.748 237.61 129.165 238.004 129.467C238.399 129.764 238.881 129.913 239.453 129.913C240.049 129.913 240.546 129.756 240.944 129.442C241.347 129.125 241.648 128.698 241.85 128.163C242.055 127.623 242.157 127.024 242.157 126.364C242.157 125.712 242.057 125.124 241.856 124.601C241.658 124.074 241.359 123.657 240.956 123.351C240.558 123.041 240.057 122.886 239.453 122.886C238.873 122.886 238.386 123.033 237.992 123.327C237.598 123.617 237.3 124.023 237.099 124.547C236.897 125.066 236.797 125.671 236.797 126.364ZM246.006 121.727L248.228 125.518L250.449 121.727H252.091L249.097 126.364L252.091 131H250.449L248.228 127.402L246.006 131H244.364L247.31 126.364L244.364 121.727H246.006Z" fill="black"/>
<path d="M387.096 131V118.636H391.274C392.244 118.636 393.036 118.811 393.652 119.162C394.272 119.508 394.731 119.977 395.029 120.568C395.326 121.16 395.475 121.82 395.475 122.548C395.475 123.277 395.326 123.939 395.029 124.534C394.735 125.13 394.28 125.605 393.664 125.959C393.048 126.309 392.26 126.484 391.298 126.484H388.303V125.156H391.249C391.914 125.156 392.447 125.042 392.849 124.812C393.252 124.583 393.543 124.273 393.725 123.882C393.91 123.488 394.002 123.043 394.002 122.548C394.002 122.053 393.91 121.611 393.725 121.22C393.543 120.83 393.25 120.524 392.843 120.303C392.437 120.077 391.897 119.964 391.225 119.964H388.593V131H387.096ZM399.993 131.217C399.405 131.217 398.872 131.107 398.393 130.885C397.914 130.66 397.534 130.336 397.252 129.913C396.97 129.487 396.829 128.972 396.829 128.368C396.829 127.837 396.934 127.406 397.143 127.076C397.352 126.742 397.632 126.48 397.982 126.291C398.332 126.102 398.719 125.961 399.141 125.869C399.568 125.772 399.997 125.696 400.427 125.639C400.991 125.567 401.447 125.512 401.798 125.476C402.152 125.436 402.409 125.37 402.57 125.277C402.735 125.184 402.818 125.023 402.818 124.794V124.746C402.818 124.15 402.655 123.687 402.329 123.357C402.007 123.027 401.518 122.862 400.862 122.862C400.182 122.862 399.648 123.011 399.262 123.309C398.876 123.607 398.604 123.925 398.447 124.263L397.095 123.78C397.336 123.216 397.658 122.778 398.061 122.464C398.467 122.146 398.91 121.924 399.389 121.8C399.872 121.671 400.347 121.607 400.814 121.607C401.111 121.607 401.454 121.643 401.84 121.715C402.23 121.784 402.607 121.926 402.969 122.144C403.335 122.361 403.639 122.689 403.88 123.128C404.122 123.567 404.243 124.154 404.243 124.891V131H402.818V129.744H402.745C402.649 129.946 402.488 130.161 402.262 130.39C402.037 130.62 401.737 130.815 401.363 130.976C400.989 131.137 400.532 131.217 399.993 131.217ZM400.21 129.938C400.773 129.938 401.248 129.827 401.635 129.605C402.025 129.384 402.319 129.098 402.516 128.748C402.717 128.398 402.818 128.03 402.818 127.643V126.339C402.757 126.412 402.625 126.478 402.419 126.539C402.218 126.595 401.985 126.645 401.719 126.69C401.458 126.73 401.202 126.766 400.952 126.798C400.707 126.826 400.508 126.851 400.355 126.871C399.985 126.919 399.638 126.998 399.316 127.106C398.998 127.211 398.741 127.37 398.544 127.583C398.351 127.792 398.254 128.078 398.254 128.44C398.254 128.935 398.437 129.31 398.803 129.563C399.174 129.813 399.642 129.938 400.21 129.938ZM407.838 118.636V131H406.413V118.636H407.838ZM412.746 131.217C412.158 131.217 411.625 131.107 411.146 130.885C410.667 130.66 410.287 130.336 410.005 129.913C409.723 129.487 409.582 128.972 409.582 128.368C409.582 127.837 409.687 127.406 409.896 127.076C410.106 126.742 410.385 126.48 410.736 126.291C411.086 126.102 411.472 125.961 411.895 125.869C412.321 125.772 412.75 125.696 413.181 125.639C413.744 125.567 414.201 125.512 414.551 125.476C414.905 125.436 415.163 125.37 415.324 125.277C415.489 125.184 415.571 125.023 415.571 124.794V124.746C415.571 124.15 415.408 123.687 415.082 123.357C414.76 123.027 414.271 122.862 413.615 122.862C412.935 122.862 412.402 123.011 412.015 123.309C411.629 123.607 411.357 123.925 411.2 124.263L409.848 123.78C410.09 123.216 410.412 122.778 410.814 122.464C411.221 122.146 411.663 121.924 412.142 121.8C412.625 121.671 413.1 121.607 413.567 121.607C413.865 121.607 414.207 121.643 414.593 121.715C414.984 121.784 415.36 121.926 415.722 122.144C416.088 122.361 416.392 122.689 416.634 123.128C416.875 123.567 416.996 124.154 416.996 124.891V131H415.571V129.744H415.499C415.402 129.946 415.241 130.161 415.016 130.39C414.79 130.62 414.491 130.815 414.116 130.976C413.742 131.137 413.285 131.217 412.746 131.217ZM412.963 129.938C413.527 129.938 414.002 129.827 414.388 129.605C414.778 129.384 415.072 129.098 415.269 128.748C415.471 128.398 415.571 128.03 415.571 127.643V126.339C415.511 126.412 415.378 126.478 415.173 126.539C414.971 126.595 414.738 126.645 414.472 126.69C414.211 126.73 413.955 126.766 413.706 126.798C413.46 126.826 413.261 126.851 413.108 126.871C412.738 126.919 412.392 126.998 412.07 127.106C411.752 127.211 411.494 127.37 411.297 127.583C411.104 127.792 411.007 128.078 411.007 128.44C411.007 128.935 411.19 129.31 411.557 129.563C411.927 129.813 412.396 129.938 412.963 129.938ZM423.199 121.727V122.935H418.394V121.727H423.199ZM419.794 119.506H421.219V128.344C421.219 128.746 421.277 129.048 421.394 129.249C421.515 129.446 421.668 129.579 421.853 129.648C422.042 129.712 422.241 129.744 422.45 129.744C422.607 129.744 422.736 129.736 422.837 129.72C422.937 129.7 423.018 129.684 423.078 129.672L423.368 130.952C423.271 130.988 423.137 131.024 422.963 131.06C422.79 131.101 422.571 131.121 422.305 131.121C421.903 131.121 421.509 131.034 421.122 130.861C420.74 130.688 420.422 130.424 420.168 130.07C419.919 129.716 419.794 129.269 419.794 128.73V119.506ZM424.912 131V121.727H426.337V131H424.912ZM425.636 120.182C425.359 120.182 425.119 120.087 424.918 119.898C424.721 119.709 424.622 119.482 424.622 119.216C424.622 118.95 424.721 118.723 424.918 118.534C425.119 118.345 425.359 118.25 425.636 118.25C425.914 118.25 426.152 118.345 426.349 118.534C426.55 118.723 426.651 118.95 426.651 119.216C426.651 119.482 426.55 119.709 426.349 119.898C426.152 120.087 425.914 120.182 425.636 120.182ZM429.941 125.422V131H428.516V121.727H429.893V123.176H430.013C430.231 122.705 430.561 122.327 431.003 122.041C431.446 121.751 432.018 121.607 432.718 121.607C433.346 121.607 433.895 121.735 434.366 121.993C434.837 122.246 435.203 122.633 435.465 123.152C435.726 123.667 435.857 124.319 435.857 125.108V131H434.432V125.205C434.432 124.476 434.243 123.909 433.865 123.502C433.487 123.092 432.967 122.886 432.307 122.886C431.853 122.886 431.446 122.985 431.088 123.182C430.734 123.379 430.454 123.667 430.249 124.045C430.044 124.424 429.941 124.883 429.941 125.422ZM441.798 131.193C440.96 131.193 440.226 130.994 439.594 130.596C438.966 130.197 438.475 129.64 438.121 128.923C437.771 128.207 437.596 127.37 437.596 126.412C437.596 125.446 437.771 124.603 438.121 123.882C438.475 123.162 438.966 122.603 439.594 122.204C440.226 121.806 440.96 121.607 441.798 121.607C442.635 121.607 443.367 121.806 443.995 122.204C444.627 122.603 445.118 123.162 445.468 123.882C445.822 124.603 445.999 125.446 445.999 126.412C445.999 127.37 445.822 128.207 445.468 128.923C445.118 129.64 444.627 130.197 443.995 130.596C443.367 130.994 442.635 131.193 441.798 131.193ZM441.798 129.913C442.433 129.913 442.957 129.75 443.367 129.424C443.778 129.098 444.082 128.67 444.279 128.138C444.476 127.607 444.575 127.032 444.575 126.412C444.575 125.792 444.476 125.215 444.279 124.679C444.082 124.144 443.778 123.711 443.367 123.381C442.957 123.051 442.433 122.886 441.798 122.886C441.162 122.886 440.639 123.051 440.228 123.381C439.817 123.711 439.514 124.144 439.316 124.679C439.119 125.215 439.021 125.792 439.021 126.412C439.021 127.032 439.119 127.607 439.316 128.138C439.514 128.67 439.817 129.098 440.228 129.424C440.639 129.75 441.162 129.913 441.798 129.913Z" fill="black"/>
<path d="M1.43091 193V191.969C2.1731 191.953 2.62622 191.93 2.79028 191.898C2.95435 191.867 3.07544 191.824 3.15356 191.77C3.23169 191.707 3.28638 191.621 3.31763 191.512C3.39575 191.277 3.43872 190.734 3.44653 189.883L3.49341 187.551V182.066L3.44653 179.758C3.43872 178.891 3.39575 178.34 3.31763 178.105C3.28638 177.996 3.23169 177.914 3.15356 177.859C3.08325 177.797 2.96606 177.75 2.802 177.719C2.63794 177.68 2.18091 177.652 1.43091 177.637V176.605C2.71216 176.652 4.06372 176.676 5.4856 176.676C6.75903 176.676 7.88794 176.652 8.87231 176.605V177.637C8.03638 177.668 7.54419 177.703 7.39575 177.742C7.24731 177.773 7.14185 177.828 7.07935 177.906C7.01685 177.984 6.96997 178.258 6.93872 178.727C6.86841 179.523 6.83325 180.672 6.83325 182.172V183.52C7.39575 183.566 8.57544 183.59 10.3723 183.59C12.6379 183.59 14.0364 183.566 14.5676 183.52V182.172C14.5676 180.961 14.5598 180.184 14.5442 179.84C14.4817 178.801 14.4348 178.215 14.4036 178.082C14.3801 177.988 14.3411 177.918 14.2864 177.871C14.2395 177.816 14.1458 177.773 14.0051 177.742C13.8723 177.703 13.384 177.668 12.5403 177.637V176.605C13.5247 176.652 14.6536 176.676 15.927 176.676C17.3489 176.676 18.7004 176.652 19.9817 176.605V177.637C19.2395 177.652 18.7864 177.676 18.6223 177.707C18.4583 177.738 18.3372 177.785 18.259 177.848C18.1809 177.902 18.1262 177.984 18.095 178.094C18.0168 178.336 17.9739 178.879 17.9661 179.723L17.9192 182.066V187.551L17.9661 189.848C17.9739 190.723 18.0129 191.273 18.0833 191.5C18.1223 191.609 18.177 191.695 18.2473 191.758C18.3254 191.82 18.4465 191.867 18.6106 191.898C18.7747 191.93 19.2317 191.953 19.9817 191.969V193C18.7004 192.953 17.3489 192.93 15.927 192.93C14.6536 192.93 13.5247 192.953 12.5403 193V191.969C13.3762 191.938 13.8684 191.906 14.0168 191.875C14.1653 191.836 14.2708 191.777 14.3333 191.699C14.3958 191.621 14.4426 191.348 14.4739 190.879C14.5364 190.082 14.5676 188.934 14.5676 187.434V184.984C14.177 184.93 13.0403 184.902 11.1575 184.902C9.35278 184.902 8.14966 184.91 7.5481 184.926C7.30591 184.934 7.06763 184.953 6.83325 184.984V187.434C6.83325 188.652 6.84497 189.43 6.86841 189.766C6.93091 190.805 6.97778 191.395 7.00903 191.535C7.03247 191.621 7.06763 191.691 7.1145 191.746C7.16919 191.793 7.26294 191.836 7.39575 191.875C7.53638 191.906 8.02856 191.938 8.87231 191.969V193C7.88794 192.953 6.75903 192.93 5.4856 192.93C4.06372 192.93 2.71216 192.953 1.43091 193ZM21.1615 193V191.793L23.3294 189.637C24.4544 188.496 25.2904 187.609 25.8373 186.977C26.3841 186.344 26.8099 185.758 27.1146 185.219C27.4193 184.68 27.6302 184.195 27.7474 183.766C27.8724 183.328 27.9349 182.883 27.9349 182.43C27.9349 181.531 27.7044 180.848 27.2435 180.379C26.7826 179.91 26.1576 179.676 25.3685 179.676C24.9232 179.676 24.5013 179.766 24.1029 179.945C23.7123 180.125 23.3763 180.395 23.0951 180.754C22.9544 181.23 22.7943 181.848 22.6146 182.605H21.7123L22.0169 179.922C22.0638 179.508 22.1107 179.074 22.1576 178.621C22.6654 178.129 23.2513 177.762 23.9154 177.52C24.5873 177.277 25.3334 177.156 26.1537 177.156C27.3099 177.156 28.2435 177.348 28.9544 177.73C29.6732 178.105 30.2084 178.633 30.5599 179.312C30.9115 179.984 31.0873 180.676 31.0873 181.387C31.0873 181.848 31.0209 182.301 30.888 182.746C30.7552 183.184 30.5209 183.668 30.1849 184.199C29.8568 184.723 29.5091 185.188 29.1419 185.594L27.8177 186.941L26.5873 188.148C25.9388 188.789 25.2396 189.449 24.4896 190.129L24.5248 190.281H26.5873C26.8998 190.281 27.9349 190.262 29.6927 190.223C30.2552 190.207 30.9427 190.176 31.7552 190.129L31.849 190.281C31.7709 190.969 31.7318 191.508 31.7318 191.898C31.7318 192.148 31.7591 192.473 31.8138 192.871L31.7552 193L28.2982 192.906C27.5169 192.883 26.9584 192.871 26.6224 192.871L21.1615 193Z" fill="black"/>
<path d="M161.879 192V190.913L165.96 186.446C166.439 185.923 166.833 185.468 167.143 185.082C167.453 184.691 167.682 184.325 167.831 183.983C167.984 183.637 168.061 183.275 168.061 182.896C168.061 182.462 167.956 182.085 167.747 181.767C167.541 181.449 167.26 181.204 166.901 181.031C166.543 180.858 166.141 180.771 165.694 180.771C165.219 180.771 164.805 180.87 164.45 181.067C164.1 181.26 163.829 181.532 163.635 181.882C163.446 182.232 163.352 182.643 163.352 183.114H161.927C161.927 182.389 162.094 181.753 162.428 181.206C162.762 180.659 163.217 180.232 163.792 179.926C164.372 179.62 165.022 179.467 165.742 179.467C166.467 179.467 167.109 179.62 167.668 179.926C168.228 180.232 168.666 180.645 168.984 181.164C169.302 181.683 169.461 182.26 169.461 182.896C169.461 183.351 169.379 183.796 169.214 184.23C169.053 184.661 168.771 185.142 168.368 185.673C167.97 186.201 167.417 186.844 166.708 187.605L163.931 190.575V190.672H169.678V192H161.879ZM171.186 189.464V188.233L176.62 179.636H177.513V181.544H176.909L172.804 188.04V188.136H180.121V189.464H171.186ZM177.006 192V189.09V188.517V179.636H178.431V192H177.006ZM181.977 195.477V182.727H183.354V184.2H183.523C183.628 184.039 183.772 183.834 183.958 183.585C184.147 183.331 184.416 183.106 184.766 182.908C185.121 182.707 185.6 182.607 186.203 182.607C186.984 182.607 187.672 182.802 188.268 183.192C188.864 183.583 189.328 184.136 189.662 184.852C189.996 185.569 190.164 186.414 190.164 187.388C190.164 188.37 189.996 189.221 189.662 189.941C189.328 190.658 188.866 191.213 188.274 191.608C187.682 191.998 187 192.193 186.227 192.193C185.632 192.193 185.155 192.095 184.797 191.897C184.438 191.696 184.163 191.469 183.97 191.215C183.776 190.958 183.628 190.744 183.523 190.575H183.402V195.477H181.977ZM183.378 187.364C183.378 188.064 183.481 188.682 183.686 189.217C183.891 189.748 184.191 190.165 184.585 190.467C184.98 190.764 185.463 190.913 186.034 190.913C186.63 190.913 187.127 190.756 187.525 190.442C187.928 190.125 188.23 189.698 188.431 189.163C188.636 188.623 188.739 188.024 188.739 187.364C188.739 186.712 188.638 186.124 188.437 185.601C188.24 185.074 187.94 184.657 187.537 184.351C187.139 184.041 186.638 183.886 186.034 183.886C185.455 183.886 184.968 184.033 184.573 184.327C184.179 184.617 183.881 185.023 183.68 185.547C183.479 186.066 183.378 186.671 183.378 187.364ZM192.587 182.727L194.809 186.518L197.031 182.727H198.673L195.678 187.364L198.673 192H197.031L194.809 188.402L192.587 192H190.945L193.891 187.364L190.945 182.727H192.587ZM208.998 179.057L205.013 193.859H203.709L207.694 179.057H208.998ZM214.294 189.464V188.233L219.727 179.636H220.62V181.544H220.017L215.912 188.04V188.136H223.228V189.464H214.294ZM220.113 192V189.09V188.517V179.636H221.538V192H220.113ZM229.021 192.169C228.192 192.169 227.459 192.022 226.824 191.728C226.192 191.431 225.699 191.022 225.345 190.503C224.99 189.98 224.815 189.384 224.819 188.716C224.815 188.193 224.918 187.71 225.127 187.267C225.336 186.82 225.622 186.448 225.984 186.15C226.351 185.848 226.759 185.657 227.21 185.577V185.504C226.618 185.351 226.147 185.019 225.797 184.508C225.447 183.993 225.274 183.407 225.278 182.751C225.274 182.124 225.433 181.562 225.755 181.067C226.077 180.572 226.52 180.182 227.083 179.896C227.651 179.61 228.297 179.467 229.021 179.467C229.737 179.467 230.377 179.61 230.941 179.896C231.504 180.182 231.947 180.572 232.269 181.067C232.595 181.562 232.76 182.124 232.764 182.751C232.76 183.407 232.581 183.993 232.227 184.508C231.876 185.019 231.412 185.351 230.832 185.504V185.577C231.279 185.657 231.681 185.848 232.039 186.15C232.398 186.448 232.683 186.82 232.897 187.267C233.11 187.71 233.219 188.193 233.223 188.716C233.219 189.384 233.038 189.98 232.679 190.503C232.325 191.022 231.832 191.431 231.2 191.728C230.572 192.022 229.846 192.169 229.021 192.169ZM229.021 190.841C229.58 190.841 230.063 190.75 230.47 190.569C230.876 190.388 231.19 190.133 231.412 189.803C231.633 189.473 231.746 189.086 231.75 188.643C231.746 188.177 231.625 187.764 231.387 187.406C231.15 187.048 230.826 186.766 230.416 186.561C230.009 186.355 229.544 186.253 229.021 186.253C228.494 186.253 228.023 186.355 227.608 186.561C227.198 186.766 226.874 187.048 226.636 187.406C226.403 187.764 226.288 188.177 226.292 188.643C226.288 189.086 226.395 189.473 226.612 189.803C226.834 190.133 227.15 190.388 227.56 190.569C227.971 190.75 228.458 190.841 229.021 190.841ZM229.021 184.973C229.464 184.973 229.856 184.884 230.198 184.707C230.544 184.53 230.816 184.283 231.013 183.965C231.21 183.647 231.311 183.275 231.315 182.848C231.311 182.429 231.212 182.065 231.019 181.755C230.826 181.441 230.558 181.2 230.216 181.031C229.874 180.858 229.476 180.771 229.021 180.771C228.558 180.771 228.154 180.858 227.808 181.031C227.461 181.2 227.194 181.441 227.005 181.755C226.816 182.065 226.723 182.429 226.727 182.848C226.723 183.275 226.818 183.647 227.011 183.965C227.208 184.283 227.48 184.53 227.826 184.707C228.172 184.884 228.57 184.973 229.021 184.973ZM235.131 195.477V182.727H236.507V184.2H236.676C236.781 184.039 236.925 183.834 237.111 183.585C237.3 183.331 237.569 183.106 237.92 182.908C238.274 182.707 238.753 182.607 239.356 182.607C240.137 182.607 240.825 182.802 241.421 183.192C242.017 183.583 242.481 184.136 242.816 184.852C243.15 185.569 243.317 186.414 243.317 187.388C243.317 188.37 243.15 189.221 242.816 189.941C242.481 190.658 242.019 191.213 241.427 191.608C240.835 191.998 240.153 192.193 239.381 192.193C238.785 192.193 238.308 192.095 237.95 191.897C237.592 191.696 237.316 191.469 237.123 191.215C236.93 190.958 236.781 190.744 236.676 190.575H236.555V195.477H235.131ZM236.531 187.364C236.531 188.064 236.634 188.682 236.839 189.217C237.044 189.748 237.344 190.165 237.738 190.467C238.133 190.764 238.616 190.913 239.187 190.913C239.783 190.913 240.28 190.756 240.678 190.442C241.081 190.125 241.383 189.698 241.584 189.163C241.789 188.623 241.892 188.024 241.892 187.364C241.892 186.712 241.791 186.124 241.59 185.601C241.393 185.074 241.093 184.657 240.691 184.351C240.292 184.041 239.791 183.886 239.187 183.886C238.608 183.886 238.121 184.033 237.726 184.327C237.332 184.617 237.034 185.023 236.833 185.547C236.632 186.066 236.531 186.671 236.531 187.364ZM245.741 182.727L247.962 186.518L250.184 182.727H251.826L248.831 187.364L251.826 192H250.184L247.962 188.402L245.741 192H244.099L247.045 187.364L244.099 182.727H245.741Z" fill="black"/>
<path d="M387.096 192V179.636H391.274C392.244 179.636 393.036 179.811 393.652 180.162C394.272 180.508 394.731 180.977 395.029 181.568C395.326 182.16 395.475 182.82 395.475 183.548C395.475 184.277 395.326 184.939 395.029 185.534C394.735 186.13 394.28 186.605 393.664 186.959C393.048 187.309 392.26 187.484 391.298 187.484H388.303V186.156H391.249C391.914 186.156 392.447 186.042 392.849 185.812C393.252 185.583 393.543 185.273 393.725 184.882C393.91 184.488 394.002 184.043 394.002 183.548C394.002 183.053 393.91 182.611 393.725 182.22C393.543 181.83 393.25 181.524 392.843 181.303C392.437 181.077 391.897 180.964 391.225 180.964H388.593V192H387.096ZM399.993 192.217C399.405 192.217 398.872 192.107 398.393 191.885C397.914 191.66 397.534 191.336 397.252 190.913C396.97 190.487 396.829 189.972 396.829 189.368C396.829 188.837 396.934 188.406 397.143 188.076C397.352 187.742 397.632 187.48 397.982 187.291C398.332 187.102 398.719 186.961 399.141 186.869C399.568 186.772 399.997 186.696 400.427 186.639C400.991 186.567 401.447 186.512 401.798 186.476C402.152 186.436 402.409 186.37 402.57 186.277C402.735 186.184 402.818 186.023 402.818 185.794V185.746C402.818 185.15 402.655 184.687 402.329 184.357C402.007 184.027 401.518 183.862 400.862 183.862C400.182 183.862 399.648 184.011 399.262 184.309C398.876 184.607 398.604 184.925 398.447 185.263L397.095 184.78C397.336 184.216 397.658 183.778 398.061 183.464C398.467 183.146 398.91 182.924 399.389 182.8C399.872 182.671 400.347 182.607 400.814 182.607C401.111 182.607 401.454 182.643 401.84 182.715C402.23 182.784 402.607 182.926 402.969 183.144C403.335 183.361 403.639 183.689 403.88 184.128C404.122 184.567 404.243 185.154 404.243 185.891V192H402.818V190.744H402.745C402.649 190.946 402.488 191.161 402.262 191.39C402.037 191.62 401.737 191.815 401.363 191.976C400.989 192.137 400.532 192.217 399.993 192.217ZM400.21 190.938C400.773 190.938 401.248 190.827 401.635 190.605C402.025 190.384 402.319 190.098 402.516 189.748C402.717 189.398 402.818 189.03 402.818 188.643V187.339C402.757 187.412 402.625 187.478 402.419 187.539C402.218 187.595 401.985 187.645 401.719 187.69C401.458 187.73 401.202 187.766 400.952 187.798C400.707 187.826 400.508 187.851 400.355 187.871C399.985 187.919 399.638 187.998 399.316 188.106C398.998 188.211 398.741 188.37 398.544 188.583C398.351 188.792 398.254 189.078 398.254 189.44C398.254 189.935 398.437 190.31 398.803 190.563C399.174 190.813 399.642 190.938 400.21 190.938ZM407.838 179.636V192H406.413V179.636H407.838ZM412.746 192.217C412.158 192.217 411.625 192.107 411.146 191.885C410.667 191.66 410.287 191.336 410.005 190.913C409.723 190.487 409.582 189.972 409.582 189.368C409.582 188.837 409.687 188.406 409.896 188.076C410.106 187.742 410.385 187.48 410.736 187.291C411.086 187.102 411.472 186.961 411.895 186.869C412.321 186.772 412.75 186.696 413.181 186.639C413.744 186.567 414.201 186.512 414.551 186.476C414.905 186.436 415.163 186.37 415.324 186.277C415.489 186.184 415.571 186.023 415.571 185.794V185.746C415.571 185.15 415.408 184.687 415.082 184.357C414.76 184.027 414.271 183.862 413.615 183.862C412.935 183.862 412.402 184.011 412.015 184.309C411.629 184.607 411.357 184.925 411.2 185.263L409.848 184.78C410.09 184.216 410.412 183.778 410.814 183.464C411.221 183.146 411.663 182.924 412.142 182.8C412.625 182.671 413.1 182.607 413.567 182.607C413.865 182.607 414.207 182.643 414.593 182.715C414.984 182.784 415.36 182.926 415.722 183.144C416.088 183.361 416.392 183.689 416.634 184.128C416.875 184.567 416.996 185.154 416.996 185.891V192H415.571V190.744H415.499C415.402 190.946 415.241 191.161 415.016 191.39C414.79 191.62 414.491 191.815 414.116 191.976C413.742 192.137 413.285 192.217 412.746 192.217ZM412.963 190.938C413.527 190.938 414.002 190.827 414.388 190.605C414.778 190.384 415.072 190.098 415.269 189.748C415.471 189.398 415.571 189.03 415.571 188.643V187.339C415.511 187.412 415.378 187.478 415.173 187.539C414.971 187.595 414.738 187.645 414.472 187.69C414.211 187.73 413.955 187.766 413.706 187.798C413.46 187.826 413.261 187.851 413.108 187.871C412.738 187.919 412.392 187.998 412.07 188.106C411.752 188.211 411.494 188.37 411.297 188.583C411.104 188.792 411.007 189.078 411.007 189.44C411.007 189.935 411.19 190.31 411.557 190.563C411.927 190.813 412.396 190.938 412.963 190.938ZM423.199 182.727V183.935H418.394V182.727H423.199ZM419.794 180.506H421.219V189.344C421.219 189.746 421.277 190.048 421.394 190.249C421.515 190.446 421.668 190.579 421.853 190.648C422.042 190.712 422.241 190.744 422.45 190.744C422.607 190.744 422.736 190.736 422.837 190.72C422.937 190.7 423.018 190.684 423.078 190.672L423.368 191.952C423.271 191.988 423.137 192.024 422.963 192.06C422.79 192.101 422.571 192.121 422.305 192.121C421.903 192.121 421.509 192.034 421.122 191.861C420.74 191.688 420.422 191.424 420.168 191.07C419.919 190.716 419.794 190.269 419.794 189.73V180.506ZM424.912 192V182.727H426.337V192H424.912ZM425.636 181.182C425.359 181.182 425.119 181.087 424.918 180.898C424.721 180.709 424.622 180.482 424.622 180.216C424.622 179.95 424.721 179.723 424.918 179.534C425.119 179.345 425.359 179.25 425.636 179.25C425.914 179.25 426.152 179.345 426.349 179.534C426.55 179.723 426.651 179.95 426.651 180.216C426.651 180.482 426.55 180.709 426.349 180.898C426.152 181.087 425.914 181.182 425.636 181.182ZM429.941 186.422V192H428.516V182.727H429.893V184.176H430.013C430.231 183.705 430.561 183.327 431.003 183.041C431.446 182.751 432.018 182.607 432.718 182.607C433.346 182.607 433.895 182.735 434.366 182.993C434.837 183.246 435.203 183.633 435.465 184.152C435.726 184.667 435.857 185.319 435.857 186.108V192H434.432V186.205C434.432 185.476 434.243 184.909 433.865 184.502C433.487 184.092 432.967 183.886 432.307 183.886C431.853 183.886 431.446 183.985 431.088 184.182C430.734 184.379 430.454 184.667 430.249 185.045C430.044 185.424 429.941 185.883 429.941 186.422ZM441.798 192.193C440.96 192.193 440.226 191.994 439.594 191.596C438.966 191.197 438.475 190.64 438.121 189.923C437.771 189.207 437.596 188.37 437.596 187.412C437.596 186.446 437.771 185.603 438.121 184.882C438.475 184.162 438.966 183.603 439.594 183.204C440.226 182.806 440.96 182.607 441.798 182.607C442.635 182.607 443.367 182.806 443.995 183.204C444.627 183.603 445.118 184.162 445.468 184.882C445.822 185.603 445.999 186.446 445.999 187.412C445.999 188.37 445.822 189.207 445.468 189.923C445.118 190.64 444.627 191.197 443.995 191.596C443.367 191.994 442.635 192.193 441.798 192.193ZM441.798 190.913C442.433 190.913 442.957 190.75 443.367 190.424C443.778 190.098 444.082 189.67 444.279 189.138C444.476 188.607 444.575 188.032 444.575 187.412C444.575 186.792 444.476 186.215 444.279 185.679C444.082 185.144 443.778 184.711 443.367 184.381C442.957 184.051 442.433 183.886 441.798 183.886C441.162 183.886 440.639 184.051 440.228 184.381C439.817 184.711 439.514 185.144 439.316 185.679C439.119 186.215 439.021 186.792 439.021 187.412C439.021 188.032 439.119 188.607 439.316 189.138C439.514 189.67 439.817 190.098 440.228 190.424C440.639 190.75 441.162 190.913 441.798 190.913Z" fill="black"/>
<path d="M1.29224 241V240.141C1.91073 240.128 2.28833 240.108 2.42505 240.082C2.56177 240.056 2.66268 240.02 2.72778 239.975C2.79289 239.923 2.83846 239.851 2.8645 239.76C2.92961 239.564 2.96541 239.112 2.97192 238.402L3.01099 236.459V231.889L2.97192 229.965C2.96541 229.242 2.92961 228.783 2.8645 228.588C2.83846 228.497 2.79289 228.428 2.72778 228.383C2.66919 228.331 2.57153 228.292 2.43481 228.266C2.2981 228.233 1.91724 228.21 1.29224 228.197V227.338C2.35994 227.377 3.48625 227.396 4.67114 227.396C5.73234 227.396 6.6731 227.377 7.49341 227.338V228.197C6.79679 228.223 6.38664 228.253 6.26294 228.285C6.13924 228.311 6.05135 228.357 5.99927 228.422C5.94718 228.487 5.90812 228.715 5.88208 229.105C5.82349 229.77 5.79419 230.727 5.79419 231.977V233.1C6.26294 233.139 7.24601 233.158 8.74341 233.158C10.6314 233.158 11.7968 233.139 12.2395 233.1V231.977C12.2395 230.967 12.233 230.32 12.22 230.033C12.1679 229.167 12.1288 228.679 12.1028 228.568C12.0833 228.49 12.0507 228.432 12.0051 228.393C11.9661 228.347 11.8879 228.311 11.7708 228.285C11.6601 228.253 11.2532 228.223 10.55 228.197V227.338C11.3704 227.377 12.3111 227.396 13.3723 227.396C14.5572 227.396 15.6835 227.377 16.7512 227.338V228.197C16.1327 228.21 15.7551 228.23 15.6184 228.256C15.4817 228.282 15.3808 228.321 15.3157 228.373C15.2506 228.419 15.205 228.487 15.179 228.578C15.1139 228.78 15.078 229.232 15.0715 229.936L15.0325 231.889V236.459L15.0715 238.373C15.078 239.102 15.1106 239.561 15.1692 239.75C15.2017 239.841 15.2473 239.913 15.3059 239.965C15.371 240.017 15.4719 240.056 15.6086 240.082C15.7454 240.108 16.1262 240.128 16.7512 240.141V241C15.6835 240.961 14.5572 240.941 13.3723 240.941C12.3111 240.941 11.3704 240.961 10.55 241V240.141C11.2467 240.115 11.6568 240.089 11.7805 240.062C11.9042 240.03 11.9921 239.981 12.0442 239.916C12.0963 239.851 12.1353 239.623 12.1614 239.232C12.2135 238.568 12.2395 237.611 12.2395 236.361V234.32C11.914 234.275 10.9667 234.252 9.39771 234.252C7.8938 234.252 6.89119 234.258 6.38989 234.271C6.18807 234.278 5.9895 234.294 5.79419 234.32V236.361C5.79419 237.377 5.80396 238.025 5.82349 238.305C5.87557 239.171 5.91463 239.662 5.94067 239.779C5.96021 239.851 5.9895 239.91 6.02856 239.955C6.07414 239.994 6.15226 240.03 6.26294 240.062C6.38013 240.089 6.79028 240.115 7.49341 240.141V241C6.6731 240.961 5.73234 240.941 4.67114 240.941C3.48625 240.941 2.35994 240.961 1.29224 241ZM18.2258 240.824C18.1933 240.564 18.1152 240.072 17.9915 239.35C17.8743 238.627 17.7864 238.132 17.7278 237.865L18.3821 237.67C18.6295 238.262 18.8997 238.744 19.1926 239.115C19.4921 239.486 19.8437 239.76 20.2473 239.936C20.651 240.111 21.0709 240.199 21.5071 240.199C22.2362 240.199 22.8254 239.965 23.2747 239.496C23.7239 239.027 23.9485 238.396 23.9485 237.602C23.9485 236.755 23.7011 236.124 23.2063 235.707C22.718 235.284 22.0995 235.072 21.3508 235.072C20.9928 235.072 20.6086 235.128 20.1985 235.238L20.0813 235.121L20.1008 234.994L20.2668 234.418L20.4524 233.656L20.5403 233.646L21.2532 233.656C21.6047 233.656 21.953 233.565 22.2981 233.383C22.6431 233.194 22.9101 232.937 23.0989 232.611C23.2877 232.286 23.3821 231.941 23.3821 231.576C23.3821 231.068 23.1998 230.642 22.8352 230.297C22.4706 229.952 21.9921 229.779 21.3997 229.779C21.0155 229.779 20.664 229.841 20.345 229.965C20.026 230.082 19.7916 230.232 19.6418 230.414C19.4986 230.596 19.3489 230.915 19.1926 231.371C19.1275 231.553 19.0754 231.69 19.0364 231.781L18.3235 231.732L18.7532 229.75C18.8118 229.464 18.8639 229.128 18.9094 228.744C19.3326 228.425 19.8079 228.188 20.3352 228.031C20.8691 227.875 21.455 227.797 22.093 227.797C23.2323 227.797 24.1047 228.067 24.7102 228.607C25.3157 229.141 25.6184 229.805 25.6184 230.6C25.6184 231.205 25.4394 231.745 25.0813 232.221C24.7232 232.689 24.1764 233.119 23.4407 233.51C23.5839 233.51 23.7825 233.536 24.0364 233.588C24.3619 233.66 24.6744 233.78 24.9739 233.949C25.2799 234.112 25.5403 234.317 25.7551 234.564C25.9765 234.805 26.1392 235.079 26.2434 235.385C26.3476 235.691 26.3997 236.062 26.3997 236.498C26.3997 237.755 25.8984 238.832 24.8958 239.73C23.6913 240.805 22.2655 241.342 20.6184 241.342C20.1497 241.342 19.7395 241.303 19.3879 241.225C19.0429 241.146 18.6555 241.013 18.2258 240.824Z" fill="black"/>
<path d="M166.225 229.136V241.5H164.728V230.706H164.656L161.637 232.71V231.189L164.728 229.136H166.225ZM173.311 241.669C172.482 241.669 171.75 241.522 171.114 241.228C170.482 240.931 169.989 240.522 169.635 240.003C169.281 239.48 169.106 238.884 169.11 238.216C169.106 237.693 169.208 237.21 169.417 236.767C169.627 236.32 169.912 235.948 170.275 235.65C170.641 235.348 171.049 235.157 171.5 235.077V235.004C170.909 234.851 170.438 234.519 170.088 234.008C169.737 233.493 169.564 232.907 169.568 232.251C169.564 231.624 169.723 231.062 170.045 230.567C170.367 230.072 170.81 229.682 171.373 229.396C171.941 229.11 172.587 228.967 173.311 228.967C174.028 228.967 174.668 229.11 175.231 229.396C175.794 229.682 176.237 230.072 176.559 230.567C176.885 231.062 177.05 231.624 177.054 232.251C177.05 232.907 176.871 233.493 176.517 234.008C176.167 234.519 175.702 234.851 175.122 235.004V235.077C175.569 235.157 175.972 235.348 176.33 235.65C176.688 235.948 176.974 236.32 177.187 236.767C177.4 237.21 177.509 237.693 177.513 238.216C177.509 238.884 177.328 239.48 176.97 240.003C176.615 240.522 176.122 240.931 175.491 241.228C174.863 241.522 174.136 241.669 173.311 241.669ZM173.311 240.341C173.871 240.341 174.354 240.25 174.76 240.069C175.167 239.888 175.481 239.633 175.702 239.303C175.923 238.973 176.036 238.586 176.04 238.143C176.036 237.677 175.915 237.264 175.678 236.906C175.44 236.548 175.116 236.266 174.706 236.061C174.299 235.855 173.834 235.753 173.311 235.753C172.784 235.753 172.313 235.855 171.899 236.061C171.488 236.266 171.164 236.548 170.927 236.906C170.693 237.264 170.579 237.677 170.583 238.143C170.579 238.586 170.685 238.973 170.903 239.303C171.124 239.633 171.44 239.888 171.85 240.069C172.261 240.25 172.748 240.341 173.311 240.341ZM173.311 234.473C173.754 234.473 174.146 234.384 174.488 234.207C174.835 234.03 175.106 233.783 175.303 233.465C175.501 233.147 175.601 232.775 175.605 232.348C175.601 231.929 175.503 231.565 175.31 231.255C175.116 230.941 174.849 230.7 174.507 230.531C174.164 230.358 173.766 230.271 173.311 230.271C172.848 230.271 172.444 230.358 172.098 230.531C171.752 230.7 171.484 230.941 171.295 231.255C171.106 231.565 171.013 231.929 171.017 232.348C171.013 232.775 171.108 233.147 171.301 233.465C171.498 233.783 171.77 234.03 172.116 234.207C172.462 234.384 172.861 234.473 173.311 234.473ZM179.421 244.977V232.227H180.797V233.7H180.966C181.071 233.539 181.216 233.334 181.401 233.085C181.59 232.831 181.86 232.606 182.21 232.408C182.564 232.207 183.043 232.107 183.647 232.107C184.427 232.107 185.116 232.302 185.711 232.692C186.307 233.083 186.772 233.636 187.106 234.352C187.44 235.069 187.607 235.914 187.607 236.888C187.607 237.87 187.44 238.721 187.106 239.441C186.772 240.158 186.309 240.713 185.717 241.108C185.126 241.498 184.444 241.693 183.671 241.693C183.075 241.693 182.598 241.595 182.24 241.397C181.882 241.196 181.606 240.969 181.413 240.715C181.22 240.458 181.071 240.244 180.966 240.075H180.845V244.977H179.421ZM180.821 236.864C180.821 237.564 180.924 238.182 181.129 238.717C181.334 239.248 181.634 239.665 182.029 239.967C182.423 240.264 182.906 240.413 183.478 240.413C184.073 240.413 184.57 240.256 184.969 239.942C185.371 239.625 185.673 239.198 185.874 238.663C186.08 238.123 186.182 237.524 186.182 236.864C186.182 236.212 186.082 235.624 185.88 235.101C185.683 234.574 185.383 234.157 184.981 233.851C184.582 233.541 184.081 233.386 183.478 233.386C182.898 233.386 182.411 233.533 182.017 233.827C181.622 234.117 181.324 234.523 181.123 235.047C180.922 235.566 180.821 236.171 180.821 236.864ZM190.031 232.227L192.252 236.018L194.474 232.227H196.116L193.122 236.864L196.116 241.5H194.474L192.252 237.902L190.031 241.5H188.389L191.335 236.864L188.389 232.227H190.031ZM206.441 228.557L202.457 243.359H201.153L205.137 228.557H206.441ZM212.027 241.5V240.413L216.108 235.946C216.587 235.423 216.981 234.968 217.291 234.582C217.601 234.191 217.83 233.825 217.979 233.483C218.132 233.137 218.209 232.775 218.209 232.396C218.209 231.962 218.104 231.585 217.895 231.267C217.69 230.949 217.408 230.704 217.05 230.531C216.691 230.358 216.289 230.271 215.842 230.271C215.367 230.271 214.953 230.37 214.599 230.567C214.249 230.76 213.977 231.032 213.784 231.382C213.595 231.732 213.5 232.143 213.5 232.614H212.075C212.075 231.889 212.242 231.253 212.576 230.706C212.91 230.159 213.365 229.732 213.941 229.426C214.52 229.12 215.17 228.967 215.891 228.967C216.615 228.967 217.257 229.12 217.816 229.426C218.376 229.732 218.814 230.145 219.132 230.664C219.45 231.183 219.609 231.76 219.609 232.396C219.609 232.851 219.527 233.296 219.362 233.73C219.201 234.161 218.919 234.642 218.517 235.173C218.118 235.701 217.565 236.344 216.856 237.105L214.079 240.075V240.172H219.827V241.5H212.027ZM221.334 238.964V237.733L226.768 229.136H227.661V231.044H227.057L222.952 237.54V237.636H230.269V238.964H221.334ZM227.154 241.5V238.59V238.017V229.136H228.579V241.5H227.154ZM232.126 244.977V232.227H233.502V233.7H233.671C233.776 233.539 233.921 233.334 234.106 233.085C234.295 232.831 234.565 232.606 234.915 232.408C235.269 232.207 235.748 232.107 236.351 232.107C237.132 232.107 237.82 232.302 238.416 232.692C239.012 233.083 239.477 233.636 239.811 234.352C240.145 235.069 240.312 235.914 240.312 236.888C240.312 237.87 240.145 238.721 239.811 239.441C239.477 240.158 239.014 240.713 238.422 241.108C237.831 241.498 237.148 241.693 236.376 241.693C235.78 241.693 235.303 241.595 234.945 241.397C234.587 241.196 234.311 240.969 234.118 240.715C233.925 240.458 233.776 240.244 233.671 240.075H233.55V244.977H232.126ZM233.526 236.864C233.526 237.564 233.629 238.182 233.834 238.717C234.039 239.248 234.339 239.665 234.734 239.967C235.128 240.264 235.611 240.413 236.182 240.413C236.778 240.413 237.275 240.256 237.674 239.942C238.076 239.625 238.378 239.198 238.579 238.663C238.784 238.123 238.887 237.524 238.887 236.864C238.887 236.212 238.786 235.624 238.585 235.101C238.388 234.574 238.088 234.157 237.686 233.851C237.287 233.541 236.786 233.386 236.182 233.386C235.603 233.386 235.116 233.533 234.722 233.827C234.327 234.117 234.029 234.523 233.828 235.047C233.627 235.566 233.526 236.171 233.526 236.864ZM242.736 232.227L244.957 236.018L247.179 232.227H248.821L245.827 236.864L248.821 241.5H247.179L244.957 237.902L242.736 241.5H241.094L244.04 236.864L241.094 232.227H242.736Z" fill="black"/>
<path d="M397.528 235.318C397.528 236.622 397.292 237.749 396.822 238.699C396.351 239.649 395.705 240.381 394.884 240.896C394.063 241.411 393.125 241.669 392.07 241.669C391.016 241.669 390.078 241.411 389.257 240.896C388.436 240.381 387.79 239.649 387.319 238.699C386.849 237.749 386.613 236.622 386.613 235.318C386.613 234.014 386.849 232.887 387.319 231.938C387.79 230.988 388.436 230.255 389.257 229.74C390.078 229.225 391.016 228.967 392.07 228.967C393.125 228.967 394.063 229.225 394.884 229.74C395.705 230.255 396.351 230.988 396.822 231.938C397.292 232.887 397.528 234.014 397.528 235.318ZM396.079 235.318C396.079 234.248 395.9 233.344 395.542 232.608C395.188 231.871 394.707 231.314 394.099 230.935C393.495 230.557 392.819 230.368 392.07 230.368C391.322 230.368 390.644 230.557 390.036 230.935C389.432 231.314 388.951 231.871 388.593 232.608C388.239 233.344 388.062 234.248 388.062 235.318C388.062 236.389 388.239 237.292 388.593 238.029C388.951 238.765 389.432 239.323 390.036 239.701C390.644 240.079 391.322 240.268 392.07 240.268C392.819 240.268 393.495 240.079 394.099 239.701C394.707 239.323 395.188 238.765 395.542 238.029C395.9 237.292 396.079 236.389 396.079 235.318ZM399.422 244.977V232.227H400.798V233.7H400.968C401.072 233.539 401.217 233.334 401.402 233.085C401.591 232.831 401.861 232.606 402.211 232.408C402.565 232.207 403.044 232.107 403.648 232.107C404.429 232.107 405.117 232.302 405.713 232.692C406.308 233.083 406.773 233.636 407.107 234.352C407.441 235.069 407.608 235.914 407.608 236.888C407.608 237.87 407.441 238.721 407.107 239.441C406.773 240.158 406.31 240.713 405.719 241.108C405.127 241.498 404.445 241.693 403.672 241.693C403.076 241.693 402.6 241.595 402.241 241.397C401.883 241.196 401.607 240.969 401.414 240.715C401.221 240.458 401.072 240.244 400.968 240.075H400.847V244.977H399.422ZM400.823 236.864C400.823 237.564 400.925 238.182 401.131 238.717C401.336 239.248 401.636 239.665 402.03 239.967C402.424 240.264 402.907 240.413 403.479 240.413C404.075 240.413 404.572 240.256 404.97 239.942C405.372 239.625 405.674 239.198 405.876 238.663C406.081 238.123 406.183 237.524 406.183 236.864C406.183 236.212 406.083 235.624 405.882 235.101C405.684 234.574 405.385 234.157 404.982 233.851C404.584 233.541 404.083 233.386 403.479 233.386C402.899 233.386 402.412 233.533 402.018 233.827C401.624 234.117 401.326 234.523 401.124 235.047C400.923 235.566 400.823 236.171 400.823 236.864ZM413.239 241.693C412.346 241.693 411.575 241.496 410.927 241.102C410.283 240.703 409.786 240.148 409.436 239.435C409.09 238.719 408.917 237.886 408.917 236.936C408.917 235.986 409.09 235.149 409.436 234.425C409.786 233.696 410.273 233.129 410.897 232.722C411.525 232.312 412.257 232.107 413.094 232.107C413.577 232.107 414.054 232.187 414.525 232.348C414.996 232.509 415.425 232.771 415.811 233.133C416.197 233.491 416.505 233.966 416.735 234.558C416.964 235.149 417.079 235.878 417.079 236.743V237.347H409.931V236.115H415.63C415.63 235.592 415.525 235.125 415.316 234.714C415.111 234.304 414.817 233.98 414.435 233.743C414.056 233.505 413.609 233.386 413.094 233.386C412.527 233.386 412.036 233.527 411.621 233.809C411.211 234.087 410.895 234.449 410.674 234.896C410.452 235.342 410.342 235.821 410.342 236.332V237.153C410.342 237.854 410.462 238.447 410.704 238.934C410.949 239.417 411.289 239.786 411.724 240.039C412.159 240.289 412.664 240.413 413.239 240.413C413.614 240.413 413.952 240.361 414.253 240.256C414.559 240.148 414.823 239.987 415.044 239.773C415.266 239.556 415.437 239.286 415.557 238.964L416.934 239.351C416.789 239.818 416.545 240.228 416.203 240.582C415.861 240.933 415.439 241.206 414.936 241.403C414.433 241.597 413.867 241.693 413.239 241.693ZM420.241 235.922V241.5H418.816V232.227H420.192V233.676H420.313C420.53 233.205 420.86 232.827 421.303 232.541C421.746 232.251 422.317 232.107 423.018 232.107C423.646 232.107 424.195 232.235 424.666 232.493C425.137 232.746 425.503 233.133 425.764 233.652C426.026 234.167 426.157 234.819 426.157 235.608V241.5H424.732V235.705C424.732 234.976 424.543 234.409 424.165 234.002C423.786 233.592 423.267 233.386 422.607 233.386C422.152 233.386 421.746 233.485 421.388 233.682C421.034 233.879 420.754 234.167 420.549 234.545C420.343 234.924 420.241 235.383 420.241 235.922ZM439.25 234.304L437.97 234.666C437.889 234.453 437.771 234.246 437.614 234.044C437.461 233.839 437.252 233.67 436.986 233.537C436.72 233.404 436.38 233.338 435.966 233.338C435.398 233.338 434.925 233.469 434.547 233.73C434.173 233.988 433.986 234.316 433.986 234.714C433.986 235.069 434.114 235.348 434.372 235.554C434.629 235.759 435.032 235.93 435.579 236.067L436.956 236.405C437.785 236.606 438.403 236.914 438.809 237.328C439.216 237.739 439.419 238.268 439.419 238.916C439.419 239.447 439.266 239.922 438.96 240.341C438.658 240.759 438.236 241.089 437.692 241.331C437.149 241.572 436.517 241.693 435.797 241.693C434.851 241.693 434.068 241.488 433.448 241.077C432.828 240.667 432.436 240.067 432.271 239.278L433.623 238.94C433.752 239.439 433.996 239.814 434.354 240.063C434.716 240.313 435.189 240.438 435.772 240.438C436.437 240.438 436.964 240.297 437.354 240.015C437.749 239.729 437.946 239.387 437.946 238.989C437.946 238.667 437.833 238.397 437.608 238.18C437.382 237.958 437.036 237.793 436.569 237.685L435.024 237.322C434.175 237.121 433.551 236.809 433.152 236.387C432.758 235.96 432.561 235.427 432.561 234.787C432.561 234.264 432.708 233.801 433.002 233.398C433.299 232.996 433.704 232.68 434.215 232.451C434.73 232.221 435.314 232.107 435.966 232.107C436.883 232.107 437.604 232.308 438.127 232.71C438.654 233.113 439.028 233.644 439.25 234.304ZM443.862 241.717C443.274 241.717 442.741 241.607 442.262 241.385C441.783 241.16 441.403 240.836 441.121 240.413C440.84 239.987 440.699 239.472 440.699 238.868C440.699 238.337 440.803 237.906 441.013 237.576C441.222 237.242 441.502 236.98 441.852 236.791C442.202 236.602 442.588 236.461 443.011 236.369C443.437 236.272 443.866 236.196 444.297 236.139C444.86 236.067 445.317 236.012 445.667 235.976C446.021 235.936 446.279 235.87 446.44 235.777C446.605 235.684 446.687 235.523 446.687 235.294V235.246C446.687 234.65 446.524 234.187 446.198 233.857C445.876 233.527 445.387 233.362 444.731 233.362C444.051 233.362 443.518 233.511 443.132 233.809C442.745 234.107 442.474 234.425 442.317 234.763L440.964 234.28C441.206 233.716 441.528 233.278 441.93 232.964C442.337 232.646 442.779 232.424 443.258 232.3C443.741 232.171 444.216 232.107 444.683 232.107C444.981 232.107 445.323 232.143 445.709 232.215C446.1 232.284 446.476 232.426 446.838 232.644C447.205 232.861 447.508 233.189 447.75 233.628C447.991 234.067 448.112 234.654 448.112 235.391V241.5H446.687V240.244H446.615C446.518 240.446 446.357 240.661 446.132 240.89C445.907 241.12 445.607 241.315 445.232 241.476C444.858 241.637 444.401 241.717 443.862 241.717ZM444.079 240.438C444.643 240.438 445.118 240.327 445.504 240.105C445.895 239.884 446.188 239.598 446.386 239.248C446.587 238.898 446.687 238.53 446.687 238.143V236.839C446.627 236.912 446.494 236.978 446.289 237.039C446.088 237.095 445.854 237.145 445.589 237.19C445.327 237.23 445.071 237.266 444.822 237.298C444.576 237.326 444.377 237.351 444.224 237.371C443.854 237.419 443.508 237.498 443.186 237.606C442.868 237.711 442.61 237.87 442.413 238.083C442.22 238.292 442.123 238.578 442.123 238.94C442.123 239.435 442.307 239.81 442.673 240.063C443.043 240.313 443.512 240.438 444.079 240.438ZM451.707 235.922V241.5H450.283V232.227H451.659V233.676H451.78C451.997 233.205 452.327 232.827 452.77 232.541C453.212 232.251 453.784 232.107 454.484 232.107C455.112 232.107 455.661 232.235 456.132 232.493C456.603 232.746 456.969 233.133 457.231 233.652C457.493 234.167 457.623 234.819 457.623 235.608V241.5H456.199V235.705C456.199 234.976 456.01 234.409 455.631 234.002C455.253 233.592 454.734 233.386 454.074 233.386C453.619 233.386 453.212 233.485 452.854 233.682C452.5 233.879 452.22 234.167 452.015 234.545C451.81 234.924 451.707 235.383 451.707 235.922ZM466.365 234.304L465.085 234.666C465.005 234.453 464.886 234.246 464.729 234.044C464.576 233.839 464.367 233.67 464.101 233.537C463.836 233.404 463.495 233.338 463.081 233.338C462.513 233.338 462.041 233.469 461.662 233.73C461.288 233.988 461.101 234.316 461.101 234.714C461.101 235.069 461.23 235.348 461.487 235.554C461.745 235.759 462.147 235.93 462.695 236.067L464.071 236.405C464.9 236.606 465.518 236.914 465.924 237.328C466.331 237.739 466.534 238.268 466.534 238.916C466.534 239.447 466.381 239.922 466.075 240.341C465.773 240.759 465.351 241.089 464.807 241.331C464.264 241.572 463.632 241.693 462.912 241.693C461.966 241.693 461.183 241.488 460.564 241.077C459.944 240.667 459.551 240.067 459.386 239.278L460.739 238.94C460.867 239.439 461.111 239.814 461.469 240.063C461.831 240.313 462.304 240.438 462.888 240.438C463.552 240.438 464.079 240.297 464.469 240.015C464.864 239.729 465.061 239.387 465.061 238.989C465.061 238.667 464.948 238.397 464.723 238.18C464.498 237.958 464.151 237.793 463.685 237.685L462.139 237.322C461.29 237.121 460.666 236.809 460.268 236.387C459.873 235.96 459.676 235.427 459.676 234.787C459.676 234.264 459.823 233.801 460.117 233.398C460.415 232.996 460.819 232.68 461.33 232.451C461.845 232.221 462.429 232.107 463.081 232.107C463.999 232.107 464.719 232.308 465.242 232.71C465.769 233.113 466.144 233.644 466.365 234.304Z" fill="black"/>
<path d="M2.1841 280V266.909H6.76081C7.67274 266.909 8.42487 267.067 9.0172 267.382C9.60953 267.693 10.0506 268.113 10.3404 268.641C10.6301 269.165 10.775 269.747 10.775 270.386C10.775 270.949 10.6749 271.413 10.4746 271.78C10.2786 272.146 10.0186 272.436 9.69476 272.649C9.37516 272.862 9.02785 273.02 8.65285 273.122V273.25C9.05342 273.276 9.45612 273.416 9.86095 273.672C10.2658 273.928 10.6046 274.294 10.8773 274.771C11.15 275.249 11.2864 275.832 11.2864 276.523C11.2864 277.179 11.1372 277.769 10.8389 278.293C10.5406 278.817 10.0698 279.233 9.42629 279.54C8.78283 279.847 7.94547 280 6.91422 280H2.1841ZM3.76933 278.594H6.91422C7.94973 278.594 8.68481 278.393 9.11947 277.993C9.55839 277.588 9.77785 277.098 9.77785 276.523C9.77785 276.08 9.66493 275.67 9.43908 275.295C9.21322 274.916 8.89149 274.614 8.47388 274.388C8.05626 274.158 7.56195 274.043 6.99092 274.043H3.76933V278.594ZM3.76933 272.662H6.70967C7.18695 272.662 7.61734 272.568 8.00087 272.381C8.38865 272.193 8.69547 271.929 8.92132 271.588C9.15143 271.247 9.26649 270.847 9.26649 270.386C9.26649 269.811 9.06621 269.323 8.66564 268.923C8.26507 268.518 7.63013 268.315 6.76081 268.315H3.76933V272.662ZM17.2452 280.205C16.3589 280.205 15.5812 279.994 14.9121 279.572C14.2474 279.15 13.7275 278.56 13.3525 277.801C12.9817 277.043 12.7964 276.156 12.7964 275.142C12.7964 274.119 12.9817 273.227 13.3525 272.464C13.7275 271.701 14.2474 271.109 14.9121 270.687C15.5812 270.265 16.3589 270.054 17.2452 270.054C18.1316 270.054 18.9072 270.265 19.5719 270.687C20.241 271.109 20.7609 271.701 21.1316 272.464C21.5066 273.227 21.6941 274.119 21.6941 275.142C21.6941 276.156 21.5066 277.043 21.1316 277.801C20.7609 278.56 20.241 279.15 19.5719 279.572C18.9072 279.994 18.1316 280.205 17.2452 280.205ZM17.2452 278.849C17.9185 278.849 18.4725 278.677 18.9072 278.332C19.3418 277.987 19.6636 277.533 19.8724 276.97C20.0812 276.408 20.1856 275.798 20.1856 275.142C20.1856 274.486 20.0812 273.874 19.8724 273.308C19.6636 272.741 19.3418 272.283 18.9072 271.933C18.4725 271.584 17.9185 271.409 17.2452 271.409C16.5719 271.409 16.018 271.584 15.5833 271.933C15.1486 272.283 14.8269 272.741 14.6181 273.308C14.4093 273.874 14.3049 274.486 14.3049 275.142C14.3049 275.798 14.4093 276.408 14.6181 276.97C14.8269 277.533 15.1486 277.987 15.5833 278.332C16.018 278.677 16.5719 278.849 17.2452 278.849ZM27.2742 280.205C26.456 280.205 25.7337 279.998 25.1073 279.585C24.4809 279.167 23.9908 278.579 23.6371 277.82C23.2834 277.058 23.1066 276.156 23.1066 275.116C23.1066 274.085 23.2834 273.19 23.6371 272.432C23.9908 271.673 24.483 271.087 25.1137 270.674C25.7444 270.261 26.4731 270.054 27.2998 270.054C27.939 270.054 28.444 270.161 28.8147 270.374C29.1897 270.582 29.4752 270.821 29.6712 271.089C29.8715 271.354 30.0271 271.571 30.1378 271.741H30.2657V266.909H31.7742V280H30.3168V278.491H30.1378C30.0271 278.67 29.8694 278.896 29.6648 279.169C29.4603 279.437 29.1684 279.678 28.7891 279.891C28.4099 280.1 27.9049 280.205 27.2742 280.205ZM27.4788 278.849C28.0839 278.849 28.5952 278.692 29.0128 278.376C29.4305 278.057 29.7479 277.616 29.9653 277.053C30.1826 276.487 30.2913 275.832 30.2913 275.091C30.2913 274.358 30.1847 273.717 29.9717 273.167C29.7586 272.613 29.4432 272.183 29.0256 271.876C28.608 271.565 28.0924 271.409 27.4788 271.409C26.8396 271.409 26.3069 271.573 25.8807 271.901C25.4589 272.225 25.1414 272.666 24.9283 273.224C24.7195 273.778 24.6151 274.401 24.6151 275.091C24.6151 275.79 24.7217 276.425 24.9347 276.996C25.1521 277.562 25.4717 278.014 25.8935 278.351C26.3197 278.683 26.8481 278.849 27.4788 278.849ZM35.2881 283.682C35.0324 283.682 34.8044 283.661 34.6042 283.618C34.4039 283.58 34.2654 283.541 34.1887 283.503L34.5722 282.173C34.9387 282.267 35.2625 282.301 35.5438 282.276C35.825 282.25 36.0743 282.124 36.2917 281.898C36.5132 281.677 36.7157 281.317 36.8989 280.818L37.1801 280.051L33.5495 270.182H35.1858L37.8961 278.006H37.9983L40.7086 270.182H42.3449L38.1773 281.432C37.9898 281.939 37.7576 282.359 37.4806 282.691C37.2036 283.028 36.8819 283.277 36.5154 283.439C36.1532 283.601 35.7441 283.682 35.2881 283.682Z" fill="black"/>
<path d="M166.225 266.636V279H164.728V268.206H164.656L161.637 270.21V268.689L164.728 266.636H166.225ZM173.311 279.169C172.482 279.169 171.75 279.022 171.114 278.728C170.482 278.431 169.989 278.022 169.635 277.503C169.281 276.98 169.106 276.384 169.11 275.716C169.106 275.193 169.208 274.71 169.417 274.267C169.627 273.82 169.912 273.448 170.275 273.15C170.641 272.848 171.049 272.657 171.5 272.577V272.504C170.909 272.351 170.438 272.019 170.088 271.508C169.737 270.993 169.564 270.407 169.568 269.751C169.564 269.124 169.723 268.562 170.045 268.067C170.367 267.572 170.81 267.182 171.373 266.896C171.941 266.61 172.587 266.467 173.311 266.467C174.028 266.467 174.668 266.61 175.231 266.896C175.794 267.182 176.237 267.572 176.559 268.067C176.885 268.562 177.05 269.124 177.054 269.751C177.05 270.407 176.871 270.993 176.517 271.508C176.167 272.019 175.702 272.351 175.122 272.504V272.577C175.569 272.657 175.972 272.848 176.33 273.15C176.688 273.448 176.974 273.82 177.187 274.267C177.4 274.71 177.509 275.193 177.513 275.716C177.509 276.384 177.328 276.98 176.97 277.503C176.615 278.022 176.122 278.431 175.491 278.728C174.863 279.022 174.136 279.169 173.311 279.169ZM173.311 277.841C173.871 277.841 174.354 277.75 174.76 277.569C175.167 277.388 175.481 277.133 175.702 276.803C175.923 276.473 176.036 276.086 176.04 275.643C176.036 275.177 175.915 274.764 175.678 274.406C175.44 274.048 175.116 273.766 174.706 273.561C174.299 273.355 173.834 273.253 173.311 273.253C172.784 273.253 172.313 273.355 171.899 273.561C171.488 273.766 171.164 274.048 170.927 274.406C170.693 274.764 170.579 275.177 170.583 275.643C170.579 276.086 170.685 276.473 170.903 276.803C171.124 277.133 171.44 277.388 171.85 277.569C172.261 277.75 172.748 277.841 173.311 277.841ZM173.311 271.973C173.754 271.973 174.146 271.884 174.488 271.707C174.835 271.53 175.106 271.283 175.303 270.965C175.501 270.647 175.601 270.275 175.605 269.848C175.601 269.429 175.503 269.065 175.31 268.755C175.116 268.441 174.849 268.2 174.507 268.031C174.164 267.858 173.766 267.771 173.311 267.771C172.848 267.771 172.444 267.858 172.098 268.031C171.752 268.2 171.484 268.441 171.295 268.755C171.106 269.065 171.013 269.429 171.017 269.848C171.013 270.275 171.108 270.647 171.301 270.965C171.498 271.283 171.77 271.53 172.116 271.707C172.462 271.884 172.861 271.973 173.311 271.973ZM179.421 282.477V269.727H180.797V271.2H180.966C181.071 271.039 181.216 270.834 181.401 270.585C181.59 270.331 181.86 270.106 182.21 269.908C182.564 269.707 183.043 269.607 183.647 269.607C184.427 269.607 185.116 269.802 185.711 270.192C186.307 270.583 186.772 271.136 187.106 271.852C187.44 272.569 187.607 273.414 187.607 274.388C187.607 275.37 187.44 276.221 187.106 276.941C186.772 277.658 186.309 278.213 185.717 278.608C185.126 278.998 184.444 279.193 183.671 279.193C183.075 279.193 182.598 279.095 182.24 278.897C181.882 278.696 181.606 278.469 181.413 278.215C181.22 277.958 181.071 277.744 180.966 277.575H180.845V282.477H179.421ZM180.821 274.364C180.821 275.064 180.924 275.682 181.129 276.217C181.334 276.748 181.634 277.165 182.029 277.467C182.423 277.764 182.906 277.913 183.478 277.913C184.073 277.913 184.57 277.756 184.969 277.442C185.371 277.125 185.673 276.698 185.874 276.163C186.08 275.623 186.182 275.024 186.182 274.364C186.182 273.712 186.082 273.124 185.88 272.601C185.683 272.074 185.383 271.657 184.981 271.351C184.582 271.041 184.081 270.886 183.478 270.886C182.898 270.886 182.411 271.033 182.017 271.327C181.622 271.617 181.324 272.023 181.123 272.547C180.922 273.066 180.821 273.671 180.821 274.364ZM190.031 269.727L192.252 273.518L194.474 269.727H196.116L193.122 274.364L196.116 279H194.474L192.252 275.402L190.031 279H188.389L191.335 274.364L188.389 269.727H190.031ZM206.441 266.057L202.457 280.859H201.153L205.137 266.057H206.441ZM212.027 279V277.913L216.108 273.446C216.587 272.923 216.981 272.468 217.291 272.082C217.601 271.691 217.83 271.325 217.979 270.983C218.132 270.637 218.209 270.275 218.209 269.896C218.209 269.462 218.104 269.085 217.895 268.767C217.69 268.449 217.408 268.204 217.05 268.031C216.691 267.858 216.289 267.771 215.842 267.771C215.367 267.771 214.953 267.87 214.599 268.067C214.249 268.26 213.977 268.532 213.784 268.882C213.595 269.232 213.5 269.643 213.5 270.114H212.075C212.075 269.389 212.242 268.753 212.576 268.206C212.91 267.659 213.365 267.232 213.941 266.926C214.52 266.62 215.17 266.467 215.891 266.467C216.615 266.467 217.257 266.62 217.816 266.926C218.376 267.232 218.814 267.645 219.132 268.164C219.45 268.683 219.609 269.26 219.609 269.896C219.609 270.351 219.527 270.796 219.362 271.23C219.201 271.661 218.919 272.142 218.517 272.673C218.118 273.201 217.565 273.844 216.856 274.605L214.079 277.575V277.672H219.827V279H212.027ZM221.334 276.464V275.233L226.768 266.636H227.661V268.544H227.057L222.952 275.04V275.136H230.269V276.464H221.334ZM227.154 279V276.09V275.517V266.636H228.579V279H227.154ZM232.126 282.477V269.727H233.502V271.2H233.671C233.776 271.039 233.921 270.834 234.106 270.585C234.295 270.331 234.565 270.106 234.915 269.908C235.269 269.707 235.748 269.607 236.351 269.607C237.132 269.607 237.82 269.802 238.416 270.192C239.012 270.583 239.477 271.136 239.811 271.852C240.145 272.569 240.312 273.414 240.312 274.388C240.312 275.37 240.145 276.221 239.811 276.941C239.477 277.658 239.014 278.213 238.422 278.608C237.831 278.998 237.148 279.193 236.376 279.193C235.78 279.193 235.303 279.095 234.945 278.897C234.587 278.696 234.311 278.469 234.118 278.215C233.925 277.958 233.776 277.744 233.671 277.575H233.55V282.477H232.126ZM233.526 274.364C233.526 275.064 233.629 275.682 233.834 276.217C234.039 276.748 234.339 277.165 234.734 277.467C235.128 277.764 235.611 277.913 236.182 277.913C236.778 277.913 237.275 277.756 237.674 277.442C238.076 277.125 238.378 276.698 238.579 276.163C238.784 275.623 238.887 275.024 238.887 274.364C238.887 273.712 238.786 273.124 238.585 272.601C238.388 272.074 238.088 271.657 237.686 271.351C237.287 271.041 236.786 270.886 236.182 270.886C235.603 270.886 235.116 271.033 234.722 271.327C234.327 271.617 234.029 272.023 233.828 272.547C233.627 273.066 233.526 273.671 233.526 274.364ZM242.736 269.727L244.957 273.518L247.179 269.727H248.821L245.827 274.364L248.821 279H247.179L244.957 275.402L242.736 279H241.094L244.04 274.364L241.094 269.727H242.736Z" fill="black"/>
<path d="M397.528 272.818C397.528 274.122 397.292 275.249 396.822 276.199C396.351 277.149 395.705 277.881 394.884 278.396C394.063 278.911 393.125 279.169 392.07 279.169C391.016 279.169 390.078 278.911 389.257 278.396C388.436 277.881 387.79 277.149 387.319 276.199C386.849 275.249 386.613 274.122 386.613 272.818C386.613 271.514 386.849 270.387 387.319 269.438C387.79 268.488 388.436 267.755 389.257 267.24C390.078 266.725 391.016 266.467 392.07 266.467C393.125 266.467 394.063 266.725 394.884 267.24C395.705 267.755 396.351 268.488 396.822 269.438C397.292 270.387 397.528 271.514 397.528 272.818ZM396.079 272.818C396.079 271.748 395.9 270.844 395.542 270.108C395.188 269.371 394.707 268.814 394.099 268.435C393.495 268.057 392.819 267.868 392.07 267.868C391.322 267.868 390.644 268.057 390.036 268.435C389.432 268.814 388.951 269.371 388.593 270.108C388.239 270.844 388.062 271.748 388.062 272.818C388.062 273.889 388.239 274.792 388.593 275.529C388.951 276.265 389.432 276.823 390.036 277.201C390.644 277.579 391.322 277.768 392.07 277.768C392.819 277.768 393.495 277.579 394.099 277.201C394.707 276.823 395.188 276.265 395.542 275.529C395.9 274.792 396.079 273.889 396.079 272.818ZM399.422 282.477V269.727H400.798V271.2H400.968C401.072 271.039 401.217 270.834 401.402 270.585C401.591 270.331 401.861 270.106 402.211 269.908C402.565 269.707 403.044 269.607 403.648 269.607C404.429 269.607 405.117 269.802 405.713 270.192C406.308 270.583 406.773 271.136 407.107 271.852C407.441 272.569 407.608 273.414 407.608 274.388C407.608 275.37 407.441 276.221 407.107 276.941C406.773 277.658 406.31 278.213 405.719 278.608C405.127 278.998 404.445 279.193 403.672 279.193C403.076 279.193 402.6 279.095 402.241 278.897C401.883 278.696 401.607 278.469 401.414 278.215C401.221 277.958 401.072 277.744 400.968 277.575H400.847V282.477H399.422ZM400.823 274.364C400.823 275.064 400.925 275.682 401.131 276.217C401.336 276.748 401.636 277.165 402.03 277.467C402.424 277.764 402.907 277.913 403.479 277.913C404.075 277.913 404.572 277.756 404.97 277.442C405.372 277.125 405.674 276.698 405.876 276.163C406.081 275.623 406.183 275.024 406.183 274.364C406.183 273.712 406.083 273.124 405.882 272.601C405.684 272.074 405.385 271.657 404.982 271.351C404.584 271.041 404.083 270.886 403.479 270.886C402.899 270.886 402.412 271.033 402.018 271.327C401.624 271.617 401.326 272.023 401.124 272.547C400.923 273.066 400.823 273.671 400.823 274.364ZM413.239 279.193C412.346 279.193 411.575 278.996 410.927 278.602C410.283 278.203 409.786 277.648 409.436 276.935C409.09 276.219 408.917 275.386 408.917 274.436C408.917 273.486 409.09 272.649 409.436 271.925C409.786 271.196 410.273 270.629 410.897 270.222C411.525 269.812 412.257 269.607 413.094 269.607C413.577 269.607 414.054 269.687 414.525 269.848C414.996 270.009 415.425 270.271 415.811 270.633C416.197 270.991 416.505 271.466 416.735 272.058C416.964 272.649 417.079 273.378 417.079 274.243V274.847H409.931V273.615H415.63C415.63 273.092 415.525 272.625 415.316 272.214C415.111 271.804 414.817 271.48 414.435 271.243C414.056 271.005 413.609 270.886 413.094 270.886C412.527 270.886 412.036 271.027 411.621 271.309C411.211 271.587 410.895 271.949 410.674 272.396C410.452 272.842 410.342 273.321 410.342 273.832V274.653C410.342 275.354 410.462 275.947 410.704 276.434C410.949 276.917 411.289 277.286 411.724 277.539C412.159 277.789 412.664 277.913 413.239 277.913C413.614 277.913 413.952 277.861 414.253 277.756C414.559 277.648 414.823 277.487 415.044 277.273C415.266 277.056 415.437 276.786 415.557 276.464L416.934 276.851C416.789 277.318 416.545 277.728 416.203 278.082C415.861 278.433 415.439 278.706 414.936 278.903C414.433 279.097 413.867 279.193 413.239 279.193ZM420.241 273.422V279H418.816V269.727H420.192V271.176H420.313C420.53 270.705 420.86 270.327 421.303 270.041C421.746 269.751 422.317 269.607 423.018 269.607C423.646 269.607 424.195 269.735 424.666 269.993C425.137 270.246 425.503 270.633 425.764 271.152C426.026 271.667 426.157 272.319 426.157 273.108V279H424.732V273.205C424.732 272.476 424.543 271.909 424.165 271.502C423.786 271.092 423.267 270.886 422.607 270.886C422.152 270.886 421.746 270.985 421.388 271.182C421.034 271.379 420.754 271.667 420.549 272.045C420.343 272.424 420.241 272.883 420.241 273.422ZM439.25 271.804L437.97 272.166C437.889 271.953 437.771 271.746 437.614 271.544C437.461 271.339 437.252 271.17 436.986 271.037C436.72 270.904 436.38 270.838 435.966 270.838C435.398 270.838 434.925 270.969 434.547 271.23C434.173 271.488 433.986 271.816 433.986 272.214C433.986 272.569 434.114 272.848 434.372 273.054C434.629 273.259 435.032 273.43 435.579 273.567L436.956 273.905C437.785 274.106 438.403 274.414 438.809 274.828C439.216 275.239 439.419 275.768 439.419 276.416C439.419 276.947 439.266 277.422 438.96 277.841C438.658 278.259 438.236 278.589 437.692 278.831C437.149 279.072 436.517 279.193 435.797 279.193C434.851 279.193 434.068 278.988 433.448 278.577C432.828 278.167 432.436 277.567 432.271 276.778L433.623 276.44C433.752 276.939 433.996 277.314 434.354 277.563C434.716 277.813 435.189 277.938 435.772 277.938C436.437 277.938 436.964 277.797 437.354 277.515C437.749 277.229 437.946 276.887 437.946 276.489C437.946 276.167 437.833 275.897 437.608 275.68C437.382 275.458 437.036 275.293 436.569 275.185L435.024 274.822C434.175 274.621 433.551 274.309 433.152 273.887C432.758 273.46 432.561 272.927 432.561 272.287C432.561 271.764 432.708 271.301 433.002 270.898C433.299 270.496 433.704 270.18 434.215 269.951C434.73 269.721 435.314 269.607 435.966 269.607C436.883 269.607 437.604 269.808 438.127 270.21C438.654 270.613 439.028 271.144 439.25 271.804ZM443.862 279.217C443.274 279.217 442.741 279.107 442.262 278.885C441.783 278.66 441.403 278.336 441.121 277.913C440.84 277.487 440.699 276.972 440.699 276.368C440.699 275.837 440.803 275.406 441.013 275.076C441.222 274.742 441.502 274.48 441.852 274.291C442.202 274.102 442.588 273.961 443.011 273.869C443.437 273.772 443.866 273.696 444.297 273.639C444.86 273.567 445.317 273.512 445.667 273.476C446.021 273.436 446.279 273.37 446.44 273.277C446.605 273.184 446.687 273.023 446.687 272.794V272.746C446.687 272.15 446.524 271.687 446.198 271.357C445.876 271.027 445.387 270.862 444.731 270.862C444.051 270.862 443.518 271.011 443.132 271.309C442.745 271.607 442.474 271.925 442.317 272.263L440.964 271.78C441.206 271.216 441.528 270.778 441.93 270.464C442.337 270.146 442.779 269.924 443.258 269.8C443.741 269.671 444.216 269.607 444.683 269.607C444.981 269.607 445.323 269.643 445.709 269.715C446.1 269.784 446.476 269.926 446.838 270.144C447.205 270.361 447.508 270.689 447.75 271.128C447.991 271.567 448.112 272.154 448.112 272.891V279H446.687V277.744H446.615C446.518 277.946 446.357 278.161 446.132 278.39C445.907 278.62 445.607 278.815 445.232 278.976C444.858 279.137 444.401 279.217 443.862 279.217ZM444.079 277.938C444.643 277.938 445.118 277.827 445.504 277.605C445.895 277.384 446.188 277.098 446.386 276.748C446.587 276.398 446.687 276.03 446.687 275.643V274.339C446.627 274.412 446.494 274.478 446.289 274.539C446.088 274.595 445.854 274.645 445.589 274.69C445.327 274.73 445.071 274.766 444.822 274.798C444.576 274.826 444.377 274.851 444.224 274.871C443.854 274.919 443.508 274.998 443.186 275.106C442.868 275.211 442.61 275.37 442.413 275.583C442.22 275.792 442.123 276.078 442.123 276.44C442.123 276.935 442.307 277.31 442.673 277.563C443.043 277.813 443.512 277.938 444.079 277.938ZM451.707 273.422V279H450.283V269.727H451.659V271.176H451.78C451.997 270.705 452.327 270.327 452.77 270.041C453.212 269.751 453.784 269.607 454.484 269.607C455.112 269.607 455.661 269.735 456.132 269.993C456.603 270.246 456.969 270.633 457.231 271.152C457.493 271.667 457.623 272.319 457.623 273.108V279H456.199V273.205C456.199 272.476 456.01 271.909 455.631 271.502C455.253 271.092 454.734 270.886 454.074 270.886C453.619 270.886 453.212 270.985 452.854 271.182C452.5 271.379 452.22 271.667 452.015 272.045C451.81 272.424 451.707 272.883 451.707 273.422ZM466.365 271.804L465.085 272.166C465.005 271.953 464.886 271.746 464.729 271.544C464.576 271.339 464.367 271.17 464.101 271.037C463.836 270.904 463.495 270.838 463.081 270.838C462.513 270.838 462.041 270.969 461.662 271.23C461.288 271.488 461.101 271.816 461.101 272.214C461.101 272.569 461.23 272.848 461.487 273.054C461.745 273.259 462.147 273.43 462.695 273.567L464.071 273.905C464.9 274.106 465.518 274.414 465.924 274.828C466.331 275.239 466.534 275.768 466.534 276.416C466.534 276.947 466.381 277.422 466.075 277.841C465.773 278.259 465.351 278.589 464.807 278.831C464.264 279.072 463.632 279.193 462.912 279.193C461.966 279.193 461.183 278.988 460.564 278.577C459.944 278.167 459.551 277.567 459.386 276.778L460.739 276.44C460.867 276.939 461.111 277.314 461.469 277.563C461.831 277.813 462.304 277.938 462.888 277.938C463.552 277.938 464.079 277.797 464.469 277.515C464.864 277.229 465.061 276.887 465.061 276.489C465.061 276.167 464.948 275.897 464.723 275.68C464.498 275.458 464.151 275.293 463.685 275.185L462.139 274.822C461.29 274.621 460.666 274.309 460.268 273.887C459.873 273.46 459.676 272.927 459.676 272.287C459.676 271.764 459.823 271.301 460.117 270.898C460.415 270.496 460.819 270.18 461.33 269.951C461.845 269.721 462.429 269.607 463.081 269.607C463.999 269.607 464.719 269.808 465.242 270.21C465.769 270.613 466.144 271.144 466.365 271.804Z" fill="black"/>
</g>
<defs>
<clipPath id="clip0_167_576">
<rect width="494.401" height="291" fill="white" transform="translate(0.598877)"/>
</clipPath>
</defs>
</svg>
